<svg id="Capa_1" data-name="Capa 1" xmlns="http://www.w3.org/2000/svg" viewBox="0 0 204 204"><defs><style>.cls-1{fill:#d0761d;}.cls-2{fill:#fff;}</style></defs><title>Artboard 8ldpi</title><circle class="cls-1" cx="101.85" cy="101.83" r="101"/><path class="cls-2" d="M153,78.91a10,10,0,0,0-2.1-2.1,9.51,9.51,0,0,0,2.1-2.1,9.1,9.1,0,0,0,2.1,2.1,9.51,9.51,0,0,0-2.1,2.1ZM160.57,75a5.8,5.8,0,0,1-5.8-5.8,1.78,1.78,0,1,0-3.55,0,5.8,5.8,0,0,1-5.8,5.8,1.78,1.78,0,1,0,0,3.55,5.8,5.8,0,0,1,5.8,5.8,1.78,1.78,0,1,0,3.55,0,5.8,5.8,0,0,1,5.8-5.8,1.78,1.78,0,1,0,0-3.55Z"/><path class="cls-2" d="M50.7,74.71a9.51,9.51,0,0,0,2.1,2.1,10,10,0,0,0-2.1,2.1,9.51,9.51,0,0,0-2.1-2.1,9.1,9.1,0,0,0,2.1-2.1Zm-1.77,9.68a1.78,1.78,0,1,0,3.55,0,5.8,5.8,0,0,1,5.8-5.8,1.78,1.78,0,1,0,0-3.55,5.8,5.8,0,0,1-5.8-5.8,1.78,1.78,0,1,0-3.55,0,5.81,5.81,0,0,1-5.8,5.8,1.78,1.78,0,1,0,0,3.55,5.81,5.81,0,0,1,5.8,5.8Z"/><path class="cls-2" d="M101.85,50.67a11.32,11.32,0,0,0,3.41,3.41,11.43,11.43,0,0,0-3.41,3.41,11.55,11.55,0,0,0-3.41-3.41,11.43,11.43,0,0,0,3.41-3.41Zm-9.47,5.19a7.7,7.7,0,0,1,7.69,7.69,1.78,1.78,0,0,0,3.56,0,7.7,7.7,0,0,1,7.69-7.69,1.78,1.78,0,1,0,0-3.55,7.71,7.71,0,0,1-7.69-7.7,1.78,1.78,0,1,0-3.56,0,7.71,7.71,0,0,1-7.69,7.7,1.78,1.78,0,1,0,0,3.55Z"/><path class="cls-2" d="M68.59,101.56l6.07-17.21a.12.12,0,0,1,.11-.08h53.68a.15.15,0,0,1,.12.08l6.07,17.21Zm70,2.8a1.76,1.76,0,0,0,.22-1.62l-6.9-19.57a3.69,3.69,0,0,0-3.47-2.45H74.77a3.69,3.69,0,0,0-3.46,2.45L64.4,102.74a1.8,1.8,0,0,0,1.68,2.37h71.07a1.77,1.77,0,0,0,1.45-.75Z"/><path class="cls-2" d="M143.41,133.64c0,1.85-3.3,3.91-7.7,3.91s-7.7-2.06-7.7-3.91,3.3-3.9,7.7-3.9,7.7,2.06,7.7,3.9Zm-19,0c0,4.19,4.94,7.46,11.25,7.46S147,137.83,147,133.64s-4.94-7.45-11.25-7.45-11.25,3.27-11.25,7.45Z"/><path class="cls-2" d="M67.51,137.55c-4.4,0-7.69-2.06-7.69-3.91s3.29-3.9,7.69-3.9,7.7,2.06,7.7,3.9-3.29,3.91-7.7,3.91Zm0-11.36c-6.3,0-11.24,3.27-11.24,7.45s4.94,7.46,11.24,7.46,11.25-3.27,11.25-7.46-4.94-7.45-11.25-7.45Z"/><path class="cls-2" d="M156.67,107.24h-7.32l1-4h6.31v4Zm-3.79,17.47v20.42H120.44V131.75a9.36,9.36,0,0,0-9.36-9.35H92.14a9.35,9.35,0,0,0-9.35,9.35v13.38H50.35V124.71a5.76,5.76,0,0,1,1.08-3.38L59,110.79h65.38a1.78,1.78,0,1,0,0-3.55H60.55L69.3,82.46a5.81,5.81,0,0,1,5.47-3.87h53.68a5.83,5.83,0,0,1,5.48,3.87l8.74,24.78H131.92a1.78,1.78,0,0,0,0,3.55h12.35l7.53,10.54a5.83,5.83,0,0,1,1.08,3.38Zm-3.79,31.55v3.9a.12.12,0,0,1-.12.12H137.6a.11.11,0,0,1-.11-.12v-3.9h11.6Zm-83.35,3.9a.12.12,0,0,1-.12.12H54.25a.11.11,0,0,1-.11-.12v-3.9h11.6v3.9Zm86.86-11.48a5.81,5.81,0,0,1-5.52,4H56.15a5.81,5.81,0,0,1-5.52-4ZM86.34,141.1h30.55v4H86.34v-4ZM86.62,130a5.8,5.8,0,0,1,5.52-4h18.94a5.83,5.83,0,0,1,5.53,4Zm-.28,3.56h30.55v4H86.34v-4ZM46.56,107.24v-4h6.31l1,4Zm111.88-7.58H149a1.78,1.78,0,0,0-1.72,1.35L146,106l-8.73-24.72A9.36,9.36,0,0,0,128.45,75H74.77A9.37,9.37,0,0,0,66,81.28L57.22,106,56,101a1.79,1.79,0,0,0-1.73-1.35H44.78A1.78,1.78,0,0,0,43,101.44V109a1.77,1.77,0,0,0,1.77,1.77h9.81l-6.05,8.48a9.32,9.32,0,0,0-1.74,5.44V146.9a9.35,9.35,0,0,0,3.79,7.52s0,0,0,.06v5.68a3.67,3.67,0,0,0,3.67,3.67H65.62a3.67,3.67,0,0,0,3.67-3.67v-3.9h64.64v3.9a3.67,3.67,0,0,0,3.67,3.67H149a3.67,3.67,0,0,0,3.67-3.67v-5.74a9.35,9.35,0,0,0,3.79-7.52V124.71a9.32,9.32,0,0,0-1.74-5.44l-6.06-8.48h9.81a1.78,1.78,0,0,0,1.78-1.77v-7.58a1.78,1.78,0,0,0-1.78-1.78Z"/><path class="cls-2" d="M61.83,124.05H73.2a1.78,1.78,0,0,0,0-3.55H61.83a1.78,1.78,0,0,0,0,3.55Z"/><path class="cls-2" d="M128.25,122.28a1.78,1.78,0,0,0,1.78,1.77h11.36a1.78,1.78,0,1,0,0-3.55H130a1.78,1.78,0,0,0-1.78,1.78Z"/></svg>