<svg id="Capa_1" data-name="Capa 1" xmlns="http://www.w3.org/2000/svg" viewBox="0 0 204 204"><defs><style>.cls-1{fill:#d0761d;}.cls-2{fill:#fff;}</style></defs><title>Artboard 7ldpi</title><circle class="cls-1" cx="101.96" cy="102" r="101"/><path class="cls-2" d="M161.29,94.26h-8.12V86.65h8.12v7.61ZM145.56,112.7a4.49,4.49,0,0,1-2.17,3.89,4.56,4.56,0,0,1-6.73-2.45l-1.95-5.84a3.81,3.81,0,0,0-4.29-2.54l-22.91,4.17v-8.71a11.42,11.42,0,0,0,15.22-10.76V86.65h22.83V112.7ZM99.9,117.09h-38v-7.61H88.49a3.81,3.81,0,0,0,3.81-3.8V90.46a3.82,3.82,0,0,0-3.81-3.81h-26a11.43,11.43,0,0,1,10.76-7.6H99.9v38Zm-7.6,15.47H69.47V124.7H92.3v7.86Zm22.82,19v3.8H46.64v-3.8a11.43,11.43,0,0,1,11.41-11.42h45.66a11.43,11.43,0,0,1,11.41,11.42ZM84.69,94.26v7.61H61.86V94.26ZM99.9,71.44H92.3V63.83h7.6v7.61ZM77.08,60A11.4,11.4,0,0,1,88.46,48.61h15.26A11.41,11.41,0,0,1,115.12,60V90.46a3.81,3.81,0,0,1-7.61,0V60a3.8,3.8,0,0,0-3.8-3.8H88.49a3.8,3.8,0,0,0-3.8,3.8V71.44H77.08V60Zm88,19H122.73V60a19,19,0,0,0-19-19H88.46a19,19,0,0,0-19,19V71.82A19.06,19.06,0,0,0,54.25,90.46V120.9a3.8,3.8,0,0,0,3.8,3.8h3.81v7.86H58.05a19.05,19.05,0,0,0-19,19v7.61a3.81,3.81,0,0,0,3.81,3.8h76.09a3.8,3.8,0,0,0,3.8-3.8v-7.61a19,19,0,0,0-19-19H99.9V124.7h3.81a3.8,3.8,0,0,0,3.8-3.8v-3.24l21-3.82.9,2.71a12.18,12.18,0,0,0,23.73-3.85V101.87h11.92a3.8,3.8,0,0,0,3.8-3.8V82.85a3.8,3.8,0,0,0-3.8-3.8Z"/></svg>