<svg id="Capa_1" data-name="Capa 1" xmlns="http://www.w3.org/2000/svg" viewBox="0 0 204 204"><defs><style>.cls-1{fill:#d0761d;}.cls-2{fill:#fff;}</style></defs><title>Artboard 9ldpi</title><circle class="cls-1" cx="102" cy="102" r="101"/><path class="cls-2" d="M139.34,110.07a2,2,0,1,1-2-2,2,2,0,0,1,2,2Zm0,0"/><path class="cls-2" d="M157.5,122.18a2,2,0,1,1-2-2,2,2,0,0,1,2,2Zm0,0"/><path class="cls-2" d="M157.5,114.11a2,2,0,1,1-2-2,2,2,0,0,1,2,2Zm0,0"/><path class="cls-2" d="M157.5,106a2,2,0,1,1-2-2,2,2,0,0,1,2,2Zm0,0"/><path class="cls-2" d="M157.5,98a2,2,0,1,1-2-2,2,2,0,0,1,2,2Zm0,0"/><path class="cls-2" d="M151.44,118.15a2,2,0,1,1-2-2,2,2,0,0,1,2,2Zm0,0"/><path class="cls-2" d="M151.44,110.07a2,2,0,1,1-2-2,2,2,0,0,1,2,2Zm0,0"/><path class="cls-2" d="M151.44,102a2,2,0,1,1-2-2,2,2,0,0,1,2,2Zm0,0"/><path class="cls-2" d="M145.39,114.11a2,2,0,1,1-2-2,2,2,0,0,1,2,2Zm0,0"/><path class="cls-2" d="M145.39,106a2,2,0,1,1-2-2,2,2,0,0,1,2,2Zm0,0"/><path class="cls-2" d="M48.42,113.5a4,4,0,0,0,3.92.18,1.49,1.49,0,0,0,.3-.18l4.62-3.43H68.7v2.23a2,2,0,0,1-2.1,1.81,6.07,6.07,0,0,0-6,6v4a6.05,6.05,0,0,0,6.05,6h.45L64.47,146.4h-1a4,4,0,0,0-2.85,1.18l-2.86,2.86a4,4,0,0,0-1.18,2.85v5.22a4,4,0,0,0,4,4H97a4,4,0,0,0,4-4V153.7a4,4,0,0,0-2.23-3.61l-6.53-3.26a3.87,3.87,0,0,0-1.48-.39l2.72-16.51A5.23,5.23,0,0,0,97,125v-1.62a1.24,1.24,0,0,1,1.22-1.21H101v14.13a2,2,0,0,0,.59,1.43l10.09,10.09a2,2,0,0,0,2.86-2.86l-9.5-9.5V122.18h10.09a4,4,0,0,0,3.66-2.37l5.39-1.34a4,4,0,0,0,3.06-3.92v-2.46h4a2,2,0,1,0,0-4h-4v-2.47a4,4,0,0,0-3.06-3.91l-5.39-1.35A4,4,0,0,0,115.12,98h-4.33A8,8,0,0,0,98.9,93.07l-3.32-8a10.09,10.09,0,0,0,3.67-12.23L90.62,52a6,6,0,0,0-6.36-10.07l-28,11.58a6.06,6.06,0,0,0,2.33,11.65c.1,0,.2,0,.3,0L67.56,86a10.08,10.08,0,0,0,11.23,6L81.26,98h-24l-4.62-3.42a1.49,1.49,0,0,0-.3-.18A4,4,0,0,0,46.5,98v12.1a4,4,0,0,0,1.92,3.43Zm22.8,16.75H89.33L86.66,146.4H68.56ZM97,153.7v4.81H60.63v-5.22l2.85-2.85H90.42Zm26.24-39.15-4,1v-11l4,1Zm-8.07,3.6H105V107.77a8.05,8.05,0,0,0,5.76-5.77h4.33ZM103,96a4,4,0,1,1-4,4,4,4,0,0,1,4-4ZM56.75,59.87a2,2,0,0,1,0-1.55,2,2,0,0,1,1.09-1.09l28-11.58a2,2,0,0,1,1.54,3.73h0L59.38,61a2,2,0,0,1-2.63-1.09ZM71.29,84.43l-8.5-20.51,12.12-5,12.12-5,8.5,20.51a6.05,6.05,0,0,1-3.27,7.9h0L79.19,87.7h0a6.05,6.05,0,0,1-7.89-3.28ZM82.6,90.66l9.33-3.86,3.94,9.5A7.84,7.84,0,0,0,95.22,98H85.63ZM76.77,102H95.22a8.08,8.08,0,0,0,5.77,5.77v10.38H98.17a5.25,5.25,0,0,0-5.25,5.24V125a1.23,1.23,0,0,1-1.21,1.21h-25a2,2,0,0,1-2-2v-4a2,2,0,0,1,2-2,6,6,0,0,0,6.09-5.85V102Zm-8.07,0v4H58.61v-4ZM50.54,98l4,3v6l-4,3Zm0,0"/><path class="cls-2" d="M78.75,81.34,72.57,66.42A2,2,0,0,0,68.84,68L75,82.88a2,2,0,1,0,3.73-1.54Zm0,0"/></svg>