<svg id="Capa_1" data-name="Capa 1" xmlns="http://www.w3.org/2000/svg" viewBox="0 0 202 70"><defs><style>.cls-1{fill:#040006;}.cls-2{fill:#fff;}.cls-3{fill:none;stroke:#2b2b2b;stroke-miterlimit:10;stroke-width:1.35px;}.cls-4{fill:#d0761d;}</style></defs><title>logoldpi</title><path class="cls-1" d="M201.78,15.16V12.44h-135l3-7.45a3.1,3.1,0,0,0,.12-1.34A3.62,3.62,0,0,0,66,.5H29.13C18,2.9,14.27,13.05,14.27,13.05L1.9,44.07a15.74,15.74,0,0,0-1.34,5c.79,10,9.91,10,9.91,10H33.93A19.7,19.7,0,0,0,48.5,53.21H201.78V50.49h-151a21.07,21.07,0,0,0,1.72-2.77l0,.05H201.78V45.05H189.63l.38-2.72h11.77V39.62H190.39l.37-2.72h11V34.18H191.14l.37-2.71h10.27V28.75h-9.89l.38-2.72h9.51V23.31H62.38l1.1-2.72h138.3V17.88H64.57l1.09-2.72Z"/><path class="cls-1" d="M187.26,55.15a.38.38,0,0,1,0,.1h0a.44.44,0,0,1-.06.16h0a21.67,21.67,0,0,1-40.88-.79h7a19.2,19.2,0,0,0,32.94.28.52.52,0,0,1,.46-.28A.52.52,0,0,1,187.26,55.15Z"/><path class="cls-1" d="M89.32,54.62a13.29,13.29,0,0,1-19.81,0h4.6a13.23,13.23,0,0,0,10.33,0Z"/><path class="cls-1" d="M98.39,55.15s0,.06,0,.1h0l-.06.16h0a21.68,21.68,0,0,1-40.89-.79h7a19.21,19.21,0,0,0,33,.28.49.49,0,0,1,.45-.28A.52.52,0,0,1,98.39,55.15Z"/><path class="cls-1" d="M178.21,54.62a13.28,13.28,0,0,1-19.84,0h4.57a13.24,13.24,0,0,0,10.43,0Z"/><path class="cls-2" d="M66.56,6.83l-4.45,11h-31L22.41,39.61H38.7L41,34.23H33.75l4.44-10.94H59.94L51.35,44.68s-4.72,10.94-17,10.77H13.15S4.92,55.4,4.21,46.4a14.13,14.13,0,0,1,1.21-4.55l11.16-28S20,4.67,30,2.5H63.26s3.36-.1,3.56,3A4.57,4.57,0,0,1,66.56,6.83Z"/><line class="cls-3" x1="62.14" y1="17.87" x2="62.11" y2="17.87"/><line class="cls-3" x1="59.95" y1="23.29" x2="59.94" y2="23.29"/><path class="cls-2" d="M73.49,44.79H67.88l-.18-2.52H62.42l-1.06,2.52H55.74l8-18.91h8.41Zm-6.1-7.25-.47-5.94-2.47,5.94Z"/><path class="cls-2" d="M93.84,29.54a4.74,4.74,0,0,1-.06.75l-2.52,14.5h-5.6L88,31.55H82L79.73,44.79h-5.6l3.3-18.91H90.2a3.51,3.51,0,0,1,2.61,1A3.57,3.57,0,0,1,93.84,29.54Z"/><path class="cls-2" d="M112.39,29.54a4.74,4.74,0,0,1-.06.75l-1.75,10.09a5.15,5.15,0,0,1-1.82,3.12,5,5,0,0,1-3.32,1.29H92.67L96,25.88h12.77a3.55,3.55,0,0,1,2.62,1A3.61,3.61,0,0,1,112.39,29.54Zm-5.88,2h-6l-1.29,7.57h5.94Z"/><path class="cls-2" d="M130.9,29.54a4.74,4.74,0,0,1-.06.75l-1.75,10.09a5.1,5.1,0,0,1-1.82,3.12A5,5,0,0,1,124,44.79h-8.41a3.55,3.55,0,0,1-2.62-1,3.6,3.6,0,0,1-1-2.62,3.81,3.81,0,0,1,.07-.75l1.74-10.09a5.15,5.15,0,0,1,1.82-3.11,5,5,0,0,1,3.32-1.3h8.41a3.51,3.51,0,0,1,2.61,1A3.57,3.57,0,0,1,130.9,29.54Zm-5.88,2h-5.93l-1.31,7.57h5.94Z"/><path class="cls-4" d="M150.16,25.88l-1,5.67H137.63l-1.3,7.57h11.53l-1,5.67H134.09a3.51,3.51,0,0,1-2.61-1,3.56,3.56,0,0,1-1-2.62,4.74,4.74,0,0,1,.06-.75l1.74-10.09a5.17,5.17,0,0,1,1.83-3.11,4.94,4.94,0,0,1,3.31-1.3Z"/><path class="cls-4" d="M165.28,44.79h-5.6l-.19-2.52h-5.28l-1.06,2.52h-5.62l8-18.91h8.41Zm-6.1-7.25-.47-5.94-2.47,5.94Z"/><path class="cls-4" d="M189.43,25.88l-3.3,18.91h-5.59l1.34-7.89L176,44.79l-3.15-8-1.35,8h-5.6l3.3-18.91h5.6l3.15,7.91,5.89-7.91Z"/></svg>