<svg id="Capa_1" data-name="Capa 1" xmlns="http://www.w3.org/2000/svg" viewBox="0 0 121 122"><defs><style>.cls-1{fill:#fff;}</style></defs><title>Artboard 3ldpi</title><path class="cls-1" d="M111.47,37.08a9.51,9.51,0,0,0-2.1-2.1,9.51,9.51,0,0,0,2.1-2.1,9.26,9.26,0,0,0,2.09,2.1,9.26,9.26,0,0,0-2.09,2.1ZM119,33.2a5.8,5.8,0,0,1-5.8-5.8,1.78,1.78,0,0,0-3.55,0,5.8,5.8,0,0,1-5.8,5.8,1.78,1.78,0,0,0,0,3.56,5.8,5.8,0,0,1,5.8,5.8,1.78,1.78,0,0,0,3.55,0,5.8,5.8,0,0,1,5.8-5.8,1.78,1.78,0,1,0,0-3.56Z"/><path class="cls-1" d="M9.17,32.88a9.51,9.51,0,0,0,2.1,2.1,9.51,9.51,0,0,0-2.1,2.1A9.1,9.1,0,0,0,7.07,35a9.1,9.1,0,0,0,2.1-2.1ZM7.4,42.56a1.78,1.78,0,0,0,3.55,0,5.8,5.8,0,0,1,5.8-5.8,1.78,1.78,0,0,0,0-3.56A5.8,5.8,0,0,1,11,27.4a1.78,1.78,0,0,0-3.55,0,5.81,5.81,0,0,1-5.81,5.8,1.78,1.78,0,0,0,0,3.56,5.81,5.81,0,0,1,5.81,5.8Z"/><path class="cls-1" d="M60.32,8.84a11.43,11.43,0,0,0,3.41,3.41,11.32,11.32,0,0,0-3.41,3.41,11.43,11.43,0,0,0-3.41-3.41,11.55,11.55,0,0,0,3.41-3.41ZM50.85,14a7.71,7.71,0,0,1,7.69,7.7,1.78,1.78,0,1,0,3.55,0,7.72,7.72,0,0,1,7.7-7.7,1.78,1.78,0,1,0,0-3.55,7.71,7.71,0,0,1-7.7-7.69,1.78,1.78,0,1,0-3.55,0,7.7,7.7,0,0,1-7.69,7.69,1.78,1.78,0,1,0,0,3.55Z"/><path class="cls-1" d="M27.05,59.72l6.08-17.2a.11.11,0,0,1,.11-.08H86.92a.13.13,0,0,1,.12.08l6.07,17.2Zm70,2.81a1.77,1.77,0,0,0,.22-1.62l-6.9-19.57a3.68,3.68,0,0,0-3.47-2.45H33.24a3.67,3.67,0,0,0-3.46,2.45L22.87,60.91a1.79,1.79,0,0,0,1.67,2.37H95.62a1.77,1.77,0,0,0,1.45-.75Z"/><path class="cls-1" d="M101.88,91.81c0,1.84-3.3,3.91-7.7,3.91s-7.7-2.07-7.7-3.91,3.29-3.91,7.7-3.91,7.7,2.06,7.7,3.91Zm-18.95,0c0,4.18,4.94,7.46,11.25,7.46s11.25-3.28,11.25-7.46-4.94-7.46-11.25-7.46-11.25,3.28-11.25,7.46Z"/><path class="cls-1" d="M26,95.72c-4.4,0-7.69-2.07-7.69-3.91S21.58,87.9,26,87.9s7.7,2.06,7.7,3.91-3.29,3.91-7.7,3.91Zm0-11.37c-6.3,0-11.24,3.28-11.24,7.46S19.68,99.27,26,99.27,37.23,96,37.23,91.81,32.29,84.35,26,84.35Z"/><path class="cls-1" d="M115.14,65.41h-7.32l1-4h6.31v4Zm-3.79,17.46v20.42H78.91V89.91a9.37,9.37,0,0,0-9.36-9.35H50.61a9.36,9.36,0,0,0-9.35,9.35v13.38H8.82V82.87A5.76,5.76,0,0,1,9.9,79.5L17.43,69H82.81a1.78,1.78,0,1,0,0-3.55H19l8.75-24.78a5.8,5.8,0,0,1,5.47-3.87H86.92a5.81,5.81,0,0,1,5.48,3.87l8.74,24.78H90.39a1.78,1.78,0,0,0,0,3.55h12.35l7.53,10.54a5.83,5.83,0,0,1,1.08,3.37Zm-3.79,31.55v3.91a.13.13,0,0,1-.12.12H96.07a.12.12,0,0,1-.11-.12v-3.91h11.6Zm-83.35,3.91a.13.13,0,0,1-.12.12H12.72a.12.12,0,0,1-.11-.12v-3.91h11.6v3.91Zm86.86-11.48a5.8,5.8,0,0,1-5.52,4H14.62a5.8,5.8,0,0,1-5.52-4ZM44.81,99.27H75.35v4H44.81v-4Zm.28-11.13a5.81,5.81,0,0,1,5.52-4H69.55a5.84,5.84,0,0,1,5.53,4Zm-.28,3.55H75.35v4H44.81v-4ZM5,65.41v-4h6.31l1,4Zm111.88-7.58h-9.47a1.76,1.76,0,0,0-1.72,1.35l-1.25,5L95.74,39.44a9.36,9.36,0,0,0-8.82-6.24H33.24a9.37,9.37,0,0,0-8.82,6.24L15.69,64.17l-1.24-5a1.78,1.78,0,0,0-1.73-1.35H3.25a1.77,1.77,0,0,0-1.77,1.78v7.57A1.78,1.78,0,0,0,3.25,69h9.81L7,77.44a9.28,9.28,0,0,0-1.75,5.43v22.2a9.33,9.33,0,0,0,3.8,7.51s0,0,0,.07v5.68A3.68,3.68,0,0,0,12.72,122H24.09a3.68,3.68,0,0,0,3.67-3.67v-3.91H92.4v3.91A3.68,3.68,0,0,0,96.07,122h11.37a3.68,3.68,0,0,0,3.67-3.67v-5.75a9.32,9.32,0,0,0,3.79-7.51V82.87a9.27,9.27,0,0,0-1.74-5.43L107.1,69h9.81a1.78,1.78,0,0,0,1.78-1.78V59.61a1.78,1.78,0,0,0-1.78-1.78Z"/><path class="cls-1" d="M20.3,82.22H31.67a1.78,1.78,0,0,0,0-3.55H20.3a1.78,1.78,0,1,0,0,3.55Z"/><path class="cls-1" d="M86.72,80.44a1.78,1.78,0,0,0,1.78,1.78H99.86a1.78,1.78,0,1,0,0-3.55H88.5a1.78,1.78,0,0,0-1.78,1.77Z"/></svg>