<svg id="Capa_1" data-name="Capa 1" xmlns="http://www.w3.org/2000/svg" viewBox="0 0 137 130"><defs><style>.cls-1{fill:#fff;}</style></defs><title>Artboard 4ldpi</title><path class="cls-1" d="M126.29,58.26h-8.12V50.65h8.12v7.61ZM110.56,76.7a4.49,4.49,0,0,1-2.17,3.89,4.56,4.56,0,0,1-6.73-2.45l-2-5.84a3.81,3.81,0,0,0-4.29-2.54L72.51,73.93V65.22A11.42,11.42,0,0,0,87.73,54.46V50.65h22.83V76.7ZM64.9,81.09h-38V73.48H53.49a3.81,3.81,0,0,0,3.81-3.8V54.46a3.82,3.82,0,0,0-3.81-3.81h-26a11.43,11.43,0,0,1,10.76-7.6H64.9v38ZM57.3,96.56H34.47V88.7H57.3v7.86Zm22.82,19v3.8H11.64v-3.8a11.43,11.43,0,0,1,11.41-11.42H68.71a11.43,11.43,0,0,1,11.41,11.42ZM49.69,58.26v7.61H26.86V58.26ZM64.9,35.44H57.3V27.83h7.6v7.61ZM42.08,24A11.4,11.4,0,0,1,53.46,12.61H68.72A11.41,11.41,0,0,1,80.12,24V54.46a3.81,3.81,0,0,1-7.61,0V24a3.8,3.8,0,0,0-3.8-3.8H53.49a3.8,3.8,0,0,0-3.8,3.8V35.44H42.08V24Zm88,19H87.73V24a19,19,0,0,0-19-19H53.46a19,19,0,0,0-19,19V35.82A19.06,19.06,0,0,0,19.25,54.46V84.9a3.8,3.8,0,0,0,3.8,3.8h3.81v7.86H23.05a19.05,19.05,0,0,0-19,19v7.61A3.81,3.81,0,0,0,7.84,127H83.93a3.8,3.8,0,0,0,3.8-3.8v-7.61a19,19,0,0,0-19-19H64.9V88.7h3.81a3.8,3.8,0,0,0,3.8-3.8V81.66l21-3.82.9,2.71a12.18,12.18,0,0,0,23.73-3.85V65.87h11.92a3.8,3.8,0,0,0,3.8-3.8V46.85a3.8,3.8,0,0,0-3.8-3.8Z"/></svg>