<svg id="Capa_1" data-name="Capa 1" xmlns="http://www.w3.org/2000/svg" viewBox="0 0 111 125"><defs><style>.cls-1{fill:#fff;}</style></defs><title>Artboard 5ldpi</title><path class="cls-1" d="M93,70.07a2,2,0,1,1-2-2,2,2,0,0,1,2,2Zm0,0"/><path class="cls-1" d="M111.14,82.18a2,2,0,1,1-2-2,2,2,0,0,1,2,2Zm0,0"/><path class="cls-1" d="M111.14,74.11a2,2,0,1,1-2-2,2,2,0,0,1,2,2Zm0,0"/><path class="cls-1" d="M111.14,66a2,2,0,1,1-2-2,2,2,0,0,1,2,2Zm0,0"/><path class="cls-1" d="M111.14,58a2,2,0,1,1-2-2,2,2,0,0,1,2,2Zm0,0"/><path class="cls-1" d="M105.09,78.15a2,2,0,1,1-2-2,2,2,0,0,1,2,2Zm0,0"/><path class="cls-1" d="M105.09,70.07a2,2,0,1,1-2-2,2,2,0,0,1,2,2Zm0,0"/><path class="cls-1" d="M105.09,62a2,2,0,1,1-2-2,2,2,0,0,1,2,2Zm0,0"/><path class="cls-1" d="M99,74.11a2,2,0,1,1-2-2,2,2,0,0,1,2,2Zm0,0"/><path class="cls-1" d="M99,66a2,2,0,1,1-2-2,2,2,0,0,1,2,2Zm0,0"/><path class="cls-1" d="M2.06,73.5A4,4,0,0,0,6,73.68a1.49,1.49,0,0,0,.3-.18l4.62-3.43H22.34V72.3a2,2,0,0,1-2.1,1.81,6.07,6.07,0,0,0-6,6v4a6.05,6.05,0,0,0,6.05,6h.45L18.11,106.4h-1a4,4,0,0,0-2.85,1.18l-2.86,2.86a4,4,0,0,0-1.18,2.85v5.22a4,4,0,0,0,4,4H50.6a4,4,0,0,0,4-4V113.7a4,4,0,0,0-2.23-3.61l-6.53-3.26a3.83,3.83,0,0,0-1.48-.39l2.73-16.51A5.25,5.25,0,0,0,50.6,85V83.39a1.23,1.23,0,0,1,1.21-1.21h2.82V96.31a2,2,0,0,0,.59,1.43l10.09,10.09A2,2,0,0,0,68.17,105l-9.5-9.5V82.18H68.76a4,4,0,0,0,3.66-2.37l5.39-1.34a4,4,0,0,0,3.06-3.92V72.09h4a2,2,0,0,0,0-4h-4V65.59a4,4,0,0,0-3.06-3.91l-5.39-1.35A4,4,0,0,0,68.76,58H64.44a8,8,0,0,0-11.9-4.89l-3.32-8A10.1,10.1,0,0,0,52.9,32.84L44.26,12A6,6,0,0,0,37.9,1.92L9.93,13.5a6.06,6.06,0,0,0,2.33,11.65l.3,0L21.2,46A10.08,10.08,0,0,0,32.43,52L34.9,58h-24L6.28,54.54a1.49,1.49,0,0,0-.3-.18A4,4,0,0,0,.14,58v12.1A4,4,0,0,0,2.06,73.5Zm22.8,16.75H43L40.31,106.4H22.2ZM50.6,113.7v4.81H14.27v-5.22l2.85-2.85h27ZM76.83,74.55l-4,1v-11l4,1Zm-8.07,3.6H58.67V67.77A8.08,8.08,0,0,0,64.44,62h4.32ZM56.65,56a4,4,0,1,1-4,4,4,4,0,0,1,4-4ZM10.39,19.87a2,2,0,0,1,0-1.55,2,2,0,0,1,1.09-1.09l28-11.58A2,2,0,0,1,41,9.38h0L13,21a2,2,0,0,1-2.63-1.09ZM24.93,44.43l-8.5-20.51,12.12-5,12.12-5,8.5,20.51a6.05,6.05,0,0,1-3.27,7.9h0L32.83,47.7h0a6.06,6.06,0,0,1-7.89-3.28Zm11.31,6.23,9.33-3.86,3.94,9.5A8.41,8.41,0,0,0,48.86,58H39.27ZM30.41,62H48.86a8.08,8.08,0,0,0,5.77,5.77V78.15H51.81a5.25,5.25,0,0,0-5.25,5.24V85a1.23,1.23,0,0,1-1.21,1.21h-25a2,2,0,0,1-2-2v-4a2,2,0,0,1,2-2,6,6,0,0,0,6.09-5.85V62Zm-8.07,0v4H12.25V62ZM4.18,58l4,3v6l-4,3Zm0,0"/><path class="cls-1" d="M32.39,41.34,26.21,26.42A2,2,0,0,0,22.48,28l6.18,14.91a2,2,0,1,0,3.73-1.54Zm0,0"/></svg>