<svg id="Capa_1" data-name="Capa 1" xmlns="http://www.w3.org/2000/svg" viewBox="0 0 229 314"><defs><style>.cls-1{fill:#4c545d;}.cls-2{fill:#848a94;}.cls-3{fill:#000100;}.cls-4{fill:#a2adc7;}.cls-5{fill:#6d6b95;}.cls-6{fill:#333667;}.cls-7{fill:#171621;}.cls-8{fill:#c27d08;}.cls-9{fill:#e8ca93;}.cls-10{fill:none;}.cls-11{fill:#000300;}.cls-12{fill:#fff;}.cls-13{fill:#d19e49;}.cls-14{fill:#b1c5da;}.cls-15{fill:#ba6363;}</style></defs><title>Artboard 2ldpi</title><path class="cls-1" d="M146.68,257.63c-4.88.09-10.2.81-20,4.78-9.54-.9-11.42-11.11-12.93-19.33-.22-1.15-.42-2.24-.63-3.26-3.42-16.19-7.24-23.18-7.67-23.92h0s0,0,0,0a1.23,1.23,0,0,0-.42-.43l-.19-.1a1.41,1.41,0,0,0-.22-.06h0c-8.27-1.62-17.06-10.11-17.14-10.19a1.24,1.24,0,1,0-1.73,1.77,56.76,56.76,0,0,0,8.39,6.53c.88,7.54,2.94,33.15-6.86,48.15l-.94-.16-.23,0c-1.54-.24-3.08-.43-4.6-.58l-.79-.07c-.83-.07-1.65-.14-2.45-.19l-.94-.05-.47,0-1.07-.05c-.31,0-.61,0-.91,0l-2,0H71.27c-4.1,0-6.82.21-6.91.22a2.72,2.72,0,0,0-1.69.69c-9.33-7.49-4.68-25.14-2.16-32.56,5.43-16,5.62-19.15,6.28-29.51l0-.44c0-.58.08-1.27.13-2.05.69-12,2.52-44.08,15.77-78.16a1,1,0,0,0,.07-.29c.85-.34,1.46-.55,1.78-.64,2.22.48,4.52.89,6.92,1.2a1.28,1.28,0,0,0-.08.35,14.23,14.23,0,0,0,3.61,10c2.92,3.11,7.32,4.69,13.1,4.69h.24c11.45-.08,16.07-10.95,17-17.44a67.62,67.62,0,0,1,11.36,4c-1.88,3.72-6.76,15.26-1.48,26.48-7.12,27-5.1,37.33-4.22,43.67C136.21,227.65,150.52,235.06,146.68,257.63Z"/><path class="cls-2" d="M158.69,247.42c0,7-3.72,9.86-4.75,10.53-1.55-.16-3.11-.3-3.6-.31h-.21c-1.16,0-2.29,0-3.45,0,3.84-22.57-10.47-30-15.66-67.12-.88-6.34-2.9-16.65,4.22-43.67a26.19,26.19,0,0,0,4.1,6.18c-.94,3-4.47,15-3.91,23.88.78,12.31,7.56,34.31,7.83,35.18,1.57,6,6.18,13.33,9.54,18.65a50.91,50.91,0,0,1,3.75,6.44A29.17,29.17,0,0,1,158.69,247.42Z"/><path class="cls-3" d="M105.59,216.71a1.22,1.22,0,0,1-1.08,1,.32.32,0,0,1-.13,0l-.24,0-.58-.13a14.72,14.72,0,0,1-1.45-.38,34.44,34.44,0,0,1-8-3.8,56.76,56.76,0,0,1-8.39-6.53,1.24,1.24,0,1,1,1.73-1.77c.08.08,8.87,8.57,17.14,10.19h0a1.41,1.41,0,0,1,.22.06l.19.1a1.23,1.23,0,0,1,.42.43s0,0,0,0h0A1.31,1.31,0,0,1,105.59,216.71Z"/><path class="cls-3" d="M141.58,153.62a1.2,1.2,0,0,1-.84.34,1.25,1.25,0,0,1-.91-.4l-.49-.54c-.17-.19-.34-.39-.5-.59l-.37-.44c-.17-.22-.34-.43-.5-.66s-.3-.4-.44-.6l-.47-.67c-.22-.34-.44-.68-.64-1s-.25-.42-.37-.63-.27-.49-.39-.73-.29-.55-.42-.83c-.21-.45-.4-.9-.58-1.35l-.16-.41a1.07,1.07,0,0,1-.07-.19l-.18-.48c-.12-.37-.24-.73-.35-1.09l-.18-.66c0-.14-.08-.29-.11-.43s-.07-.3-.11-.45c-.14-.63-.26-1.25-.34-1.87,0-.22-.07-.44-.1-.66-.1-.83-.16-1.65-.18-2.45,0-.14,0-.27,0-.4a30,30,0,0,1,.32-4.91,37,37,0,0,1,3.53-11.13c.39-.76.65-1.2.66-1.23a1.26,1.26,0,0,1,1.54-.49l0,0a.2.2,0,0,1,.09,0l0,0,0,0,0,0a1.24,1.24,0,0,1,.33,1.65c-.05.09-.28.46-.6,1.08a33.23,33.23,0,0,0-3.39,10.55,23.44,23.44,0,0,0,5.95,19.61h0l.2.21A1.23,1.23,0,0,1,141.58,153.62Z"/><path class="cls-3" d="M101.09,263.3a9.24,9.24,0,0,1-3,2.21,6.59,6.59,0,0,1-2.46.64h0a1.28,1.28,0,0,1-.48-.09,1.24,1.24,0,0,1,.46-2.38l.18,0a6,6,0,0,0,3.54-2.11c2.1-2.38,4.4-7.66,3.38-19.33a184,184,0,0,1-.71-20.09c0-1.44,0-2.93,0-4.55a1.1,1.1,0,0,1,.07-.41,1.21,1.21,0,0,1,1-.82h.11a1.25,1.25,0,0,1,1.24,1.24v.11c0,.65,0,1.27,0,1.88,0,.88,0,1.75,0,2.59a179.68,179.68,0,0,0,.71,19.85C106.07,252.18,104.69,259.35,101.09,263.3Z"/><path class="cls-3" d="M82.78,118.19a.29.29,0,0,1,0,.09.45.45,0,0,1-.05.19c-13.25,34.08-15.08,66.11-15.77,78.17,0,.77-.09,1.46-.13,2.05l0,.43c-.66,10.36-.85,13.49-6.28,29.51-2.52,7.42-7.17,25.07,2.16,32.56a11.17,11.17,0,0,0,1,.77,1.24,1.24,0,0,1-.67,2.27,1.31,1.31,0,0,1-.68-.2c-.15-.1-.31-.21-.45-.32-11.57-8.14-6.49-27.74-3.74-35.88,3.85-11.35,5-16.09,5.61-21.67.1-.92.18-1.87.26-2.89v-.05h0c.1-1.29.19-2.68.29-4.24l0-.44c0-.58.07-1.25.12-2,.32-5.53.87-15.26,2.65-27.46.09-.58.18-1.17.26-1.76,0-.24.08-.48.11-.71.19-1.22.39-2.46.61-3.73.05-.26.09-.53.14-.8.13-.75.27-1.52.4-2.29a231.88,231.88,0,0,1,10.73-39.41l.24-.64c.24-.68.5-1.36.76-2a.79.79,0,0,0,0-.09,1.83,1.83,0,0,1,.13-.24,1.23,1.23,0,0,1,.94-.54h0a1.18,1.18,0,0,1,.52.08,1,1,0,0,1,.2.11h0A1.24,1.24,0,0,1,82.78,118.19Z"/><path class="cls-3" d="M141.22,175.77c-1.25,1.27-2.53,2.59-3,3.13a.74.74,0,0,1-.1.22,1.22,1.22,0,0,1-.54.49,1.25,1.25,0,0,1-1.59-.39c-.63-.89,0-1.55,1-2.64l.85-.89c.47-.49,1-1,1.6-1.65,2.66-2.73,6.3-6.45,8.27-8.9h0l.14-.17a1.24,1.24,0,0,1,1.48-.36c.08,0,.45.21,1,.51,2.37,1.29,8.2,5,10.19,11.27a3.3,3.3,0,0,0-1.85-.27l-.74.38c-1.95-5-6.83-8.12-8.79-9.21C147.05,169.8,143.71,173.21,141.22,175.77Z"/><path class="cls-3" d="M163.81,194.85a40.2,40.2,0,0,0-1.83,5,1.3,1.3,0,0,1-.52.74c-5.37,3.58-9.72,4.58-13.1,4.58a17.74,17.74,0,0,1-4.71-.64c-.62-.16-1.19-.34-1.68-.49l-.47-.14a1.24,1.24,0,0,1-.82-1.54,1.23,1.23,0,0,1,1.55-.82l.47.14.19.06c3.19,1,8.45,2.48,16.81-3,.12-.41.25-.85.41-1.29a7.73,7.73,0,0,0,3.63-4.06c0,.2.1.41.14.62A1.17,1.17,0,0,1,163.81,194.85Z"/><path class="cls-3" d="M128.11,263.76a1.24,1.24,0,0,1-.76,1.05h0a1.33,1.33,0,0,1-.45.08h-.1a15.45,15.45,0,0,1-3.44-.65c-8.69-2.74-10.58-13-12-20.72-.21-1.14-.41-2.21-.62-3.21a108.61,108.61,0,0,0-6.22-20.75c-.41-1-.74-1.62-.94-2l-.25-.45a1.13,1.13,0,0,1-.15-.75,1.19,1.19,0,0,1,.59-.94,1.25,1.25,0,0,1,.86-.15h0a1.41,1.41,0,0,1,.22.06l.19.1a1.23,1.23,0,0,1,.42.43s0,0,0,0h0c.43.74,4.25,7.73,7.67,23.92.21,1,.41,2.11.63,3.26,1.51,8.22,3.39,18.43,12.93,19.33a2.23,2.23,0,0,0,.27,0A1.23,1.23,0,0,1,128.11,263.76Z"/><path class="cls-4" d="M161.38,194.23a46.69,46.69,0,0,0-1.68,4.59c-8.36,5.43-13.62,3.94-16.81,3-1.82-6.78-4-15.83-4.78-22.65a.74.74,0,0,0,.1-.22c.48-.54,1.76-1.86,3-3.13,2.49-2.56,5.83-6,7.94-8.49,2.52,1.41,9.89,6.19,9.6,14a4.86,4.86,0,0,1-.73,1.34c-.49.53-2.7.76-4.16.92-2.5.26-4.47.47-5.22,1.82a1.24,1.24,0,0,0,.34,1.58c1.2.91,3.63,3.31,3.5,5s-.19,3.35.88,4.15a2.79,2.79,0,0,0,2.71.06,1.23,1.23,0,0,0,.78-1.05c.08-1.06.78-5,2.72-5.08C159.78,190.1,160.61,190.87,161.38,194.23Z"/><path class="cls-3" d="M157.29,258.31a10.36,10.36,0,0,1-2.43,2,1.18,1.18,0,0,1-.58.14,1.22,1.22,0,0,1-1.09-.65,1.25,1.25,0,0,1,.51-1.67l.24-.15c1-.67,4.75-3.56,4.75-10.53a29.17,29.17,0,0,0-2.14-10.25,50.91,50.91,0,0,0-3.75-6.44c-3.36-5.32-8-12.6-9.54-18.65-.27-.87-7-22.87-7.83-35.18-.56-8.87,3-20.87,3.91-23.88.13-.38.2-.62.22-.69a1.23,1.23,0,0,1,.63-.71,1.21,1.21,0,0,1,.95-.07l.31.12h0c4.16,1.53,7.68,5.21,9.4,7.23.66.77,1.05,1.31,1.11,1.39a1.21,1.21,0,0,1,.11,1.24,2,2,0,0,0-.11.2,1.24,1.24,0,0,1-.28.28,1.22,1.22,0,0,1-1.72-.28s-.18-.25-.49-.63c-1.18-1.44-4.3-5-7.95-6.73-1.06,3.5-3.87,13.58-3.67,21.32,0,.36,0,.71,0,1.06.05.75.13,1.55.22,2.37.77,6.82,3,15.87,4.78,22.65.26,1,.51,1.92.76,2.79.14.5.28,1,.4,1.45.07.22.13.45.19.67a2,2,0,0,1,.07.23c.39,1.36.72,2.47.95,3.25.08.26.15.48.2.67l0,.15c0,.08,0,.14.06.2l.05.18a0,0,0,0,1,0,0h0c0,.09.05.18.07.26a28.69,28.69,0,0,0,1,2.87c2,5,5.51,10.61,8.21,14.88a51,51,0,0,1,4,6.89C163.56,248.79,160,255.37,157.29,258.31Z"/><path class="cls-3" d="M176.26,162.05c.13,6-2.61,11.26-8.17,15.75a41,41,0,0,1-7.13,4.58l-.42.22a1.22,1.22,0,0,1-.56.14,1.24,1.24,0,0,1-.55-2.34c.6-.31,1.18-.62,1.74-.94a32.41,32.41,0,0,0,7.8-5.82,16,16,0,0,0,4.82-10.93c.33-17.84-29-37.45-34.9-41.2l-1-.63-1.16-.52-1-.43a63.45,63.45,0,0,0-10.35-3.61c-.41-.1-.8-.19-1.18-.26h0l-.93-.17h0l-.27,0-.63-.09h0c-3.7-.49-5,.21-5,.22a1.19,1.19,0,0,1-1.69-.31,1.53,1.53,0,0,1-.16-.31,1.28,1.28,0,0,1,.48-1.43c.27-.19,1.84-1.12,5.94-.71h0a32.61,32.61,0,0,1,4.44.8,67.63,67.63,0,0,1,10.17,3.53l2.47,1.1,0,0,.09,0,.09.05,0,0c.66.39,2.87,1.76,5.91,3.87l2.16,1.54C158.12,132.08,176,147.26,176.26,162.05Z"/><path class="cls-3" d="M98.35,304.54a25.39,25.39,0,0,1-.5-4.75,21.64,21.64,0,0,1,.36-4.49c1-5.13-2.87-12.73-3.69-14.29,0-1.53.08-9,3.26-13.37a2.46,2.46,0,0,0,.35-2.09s0,0,0,0a3,3,0,0,0-2.06-1.76l-.25-.09c-.42-.15-.86-.29-1.29-.42s-.7-.22-1.05-.32c-.76-.22-1.52-.42-2.3-.6l-.8-.19-.8-.17-.32-.07-.66-.13-1.24-.23h-.07l-.94-.16-.23,0c-1.54-.24-3.08-.43-4.6-.58l-.79-.07c-.83-.07-1.65-.14-2.45-.19l-.94-.05-.47,0-1.07-.05c-.31,0-.61,0-.91,0l-2,0H71.27c-4.1,0-6.82.21-6.91.22a2.66,2.66,0,0,0-2.52,2.2,1.75,1.75,0,0,0,.06,1l0,.07c.51,1.2,2.09,8-.14,11.33-1.19,1.8-3.37,2.4-6.57,1.84a23,23,0,0,0-3.87-.32c-3,0-10.42.61-14.77,6.22-3.09,4-3.8,9.5-2.08,16.34-.39,1.92-1.07,6.85,1.78,7.56a109.43,109.43,0,0,0,27.23,3c3.31,0,6.8-.1,10.68-.28h1.16c2.56,0,5.3,0,8-.16h0c6.78-.31,13-1.12,14.56-3A2.14,2.14,0,0,0,98.35,304.54Zm-2.58.43a2.9,2.9,0,0,1-.36.2,2.81,2.81,0,0,1-.42.17.75.75,0,0,1-.18.07l-.19.06-.34.1c-.41.11-.89.22-1.45.32-.39.08-.81.16-1.28.22l-.68.1-1,.12-.2,0-1.06.11c-.85.08-1.77.16-2.75.23l-1.36.09-1,0-1.09.05-.8,0-1.68.05L79,307h-.72c-.95,0-1.94,0-3,0H74.1c-3.84.18-7.31.28-10.59.28a106.75,106.75,0,0,1-26.58-2.93c-.36-.34-.41-2.16-.13-4,0-.33.11-.65.17-1l.07-.28-.08-.28-.09-.35h0c-1.5-6-.93-10.78,1.67-14.14,3.68-4.74,10.18-5.26,12.81-5.26a20.15,20.15,0,0,1,3.45.29c4.24.74,7.3-.26,9.06-2.92,2.87-4.34,1-11.72.44-13.4a.26.26,0,0,1,.23-.11s2.74-.21,6.74-.21a95.73,95.73,0,0,1,14.39,1,51.49,51.49,0,0,1,9.5,2.3l.1,0a2.29,2.29,0,0,1,.45.2c-4,5.55-3.67,14.7-3.66,15.09l0,.29.14.26c0,.08,4.47,8.17,3.57,12.9a25.08,25.08,0,0,0-.4,4.59V300c0,.46,0,.9.06,1.33a28.15,28.15,0,0,0,.45,3.59A.4.4,0,0,1,95.77,305Z"/><path class="cls-5" d="M82.39,306.89l-.8,0-1.68.05L79,307h-.72c-.95,0-1.94,0-3,0H74.1c-3.84.18-7.31.28-10.59.28a106.75,106.75,0,0,1-26.58-2.93c-.36-.34-.41-2.16-.13-4,3.47.85,13.66,2.92,29.74,2.92,4.85,0,10.24-.18,16.14-.66A27,27,0,0,0,82.39,306.89Z"/><path class="cls-6" d="M95.78,294.83a25.08,25.08,0,0,0-.4,4.59c-4.07.55-7.93,1-11.61,1.29,5.75-7.83-1-20.91-1-20.91l2.87-16a51.49,51.49,0,0,1,9.5,2.3l.1,0a2.29,2.29,0,0,1,.45.2c-4,5.55-3.67,14.7-3.66,15.09l0,.29.14.26C92.25,282,96.68,290.1,95.78,294.83Z"/><path class="cls-7" d="M83.77,300.71c-26.89,2.31-43.18-1.26-46.9-2.2h0c-1.5-6-.93-10.78,1.67-14.14,3.68-4.74,10.18-5.26,12.81-5.26a20.15,20.15,0,0,1,3.45.29c4.24.74,7.3-.26,9.06-2.92,2.87-4.34,1-11.72.44-13.4a.26.26,0,0,1,.23-.11s2.74-.21,6.74-.21a95.73,95.73,0,0,1,14.39,1l-2.87,16S89.52,292.88,83.77,300.71Z"/><path class="cls-3" d="M95.76,301.23l-.32,0c-4.48.61-8.74,1.05-12.76,1.37-5.9.48-11.29.66-16.14.66-16.08,0-26.27-2.07-29.74-2.92-.85-.21-1.3-.34-1.33-.35a.93.93,0,0,1-.58-1.17.91.91,0,0,1,1.17-.58l.81.21h0c3.72.94,20,4.51,46.9,2.2,3.68-.32,7.54-.74,11.61-1.29l.13,0a.92.92,0,0,1,.95.49,1,1,0,0,1,.1.3A.93.93,0,0,1,95.76,301.23Z"/><path class="cls-3" d="M173.76,300.4c1.2-2.72,3.09-10.62-7.38-22a24.73,24.73,0,0,0-7.67-5.8,58.74,58.74,0,0,1,1.75-12.37,1.29,1.29,0,0,0-.14-1.13c-.32-.45-.37-.53-3-.83l-2-.22-1.38-.14c-1.55-.16-3.11-.3-3.6-.31h-.21c-1.16,0-2.29,0-3.45,0-4.88.09-10.2.81-20,4.78l-1.73.71a3.67,3.67,0,0,0-1.63,1.13,2.17,2.17,0,0,0-.43.84,2.52,2.52,0,0,0,.46,2.13c3.6,4.5,5.25,13.08,5.57,14.89-.69,1.64-3.36,8.49-2.11,13.7a23.74,23.74,0,0,1,.61,5.92,13.87,13.87,0,0,1-.32,2.69c-.05.29-.11.55-.14.79a3,3,0,0,0,1.89,3.3c2.54.94,10.28,1.27,18.09,1.27,1.88,0,3.76,0,5.58,0,2.77-.05,5.17-.13,7.25-.21,12.65-.54,13.28-1.65,13.57-2.16.51-.89.3-2.16,0-3.73-.06-.31-.13-.65-.14-.78l0-.3a3.22,3.22,0,0,1,.18-1.33A8.72,8.72,0,0,0,173.76,300.4Zm-3.4,5.75-.21,0-.28.05-.43.07h-.07l-.43.06-.13,0-.32,0c-1,.13-2.28.24-3.69.34l-.54,0-.6,0-3.13.17-4.44.17-.85,0c-1.43,0-2.9.07-4.37.09h-1.29c-1.62,0-3.24,0-4.81,0h-1.43c-1.18,0-2.32,0-3.42-.08-.88,0-1.73-.06-2.54-.09l-.59,0-1.15-.07-.55,0-1.53-.13c-.48,0-.92-.09-1.34-.15s-1-.15-1.45-.23l-.58-.14a3.63,3.63,0,0,1-.46-.14.55.55,0,0,1-.32-.59c0-.23.08-.46.13-.71a19.7,19.7,0,0,0,.32-2.08c0-.33,0-.68,0-1s0-.54,0-.82a25.29,25.29,0,0,0-.68-5.71c-1.21-5,2.09-12.39,2.12-12.46a1.21,1.21,0,0,0,.09-.7c-.07-.44-1.7-10.79-6.1-16.37a2,2,0,0,1,.56-.3l1.43-.59h0c9-3.67,13.94-4.53,18.48-4.69,1.42-.05,2.81,0,4.27,0h.21c.78,0,5.23.48,7.44.75a64.59,64.59,0,0,0-1.5,10.86,17,17,0,0,0-5.07-.72,19.1,19.1,0,0,0-5.37.83h0A28.61,28.61,0,0,0,134,279.37a1.23,1.23,0,1,0,1.84,1.64c.06-.07,5.3-5.83,12.44-7.24a15.21,15.21,0,0,1,8.76.83h0a21.52,21.52,0,0,1,7.53,5.51c11.41,12.35,6.81,19.62,6.62,19.92a1.2,1.2,0,0,0-.18.38s0,0,0,0-.07.29-.09.41a6.48,6.48,0,0,0-.22,1.47c0,.15,0,.29,0,.46l0,.25a9.12,9.12,0,0,0,.18,1.07,12.61,12.61,0,0,1,.28,1.82A7.26,7.26,0,0,1,170.36,306.15Z"/><path class="cls-5" d="M146.58,303.5c5.25,0,10.57-.15,15.11-.4L160.53,307l-4.44.17-.85,0c-1.43,0-2.9.07-4.37.09h-1.29c-1.62,0-3.24,0-4.81,0h-1.43c-1.18,0-2.32,0-3.42-.08l-2.54-.09-.59,0-1.15-.07-.55,0-1.53-.13c-.48,0-.92-.09-1.34-.15s-1-.15-1.45-.23l-.58-.14a3.63,3.63,0,0,1-.46-.14.55.55,0,0,1-.32-.59c0-.23.08-.46.13-.71a19.7,19.7,0,0,0,.32-2.08C134.48,303.29,140.49,303.5,146.58,303.5Z"/><path class="cls-6" d="M171.18,300a1.2,1.2,0,0,0-.18.38c-2.25.34-5.66.63-9.66.85,3.25-11.95-8-23.12-13.09-27.5a15.21,15.21,0,0,1,8.76.83h0a21.52,21.52,0,0,1,7.53,5.51C176,292.47,171.37,299.74,171.18,300Z"/><path class="cls-6" d="M157.75,260.86a64.59,64.59,0,0,0-1.5,10.86,17,17,0,0,0-5.07-.72,19.1,19.1,0,0,0-5.37.83c2-3.33.15-11.13,0-11.71,1.42-.05,2.81,0,4.27,0h.21C151.09,260.12,155.54,260.59,157.75,260.86Z"/><path class="cls-7" d="M161.34,301.27c-9.74.52-23,.59-31.43-.32a25.29,25.29,0,0,0-.68-5.71c-1.21-5,2.09-12.39,2.12-12.46a1.21,1.21,0,0,0,.09-.7c-.07-.44-1.7-10.79-6.1-16.37a2,2,0,0,1,.56-.3l1.43-.59h0c9-3.67,13.94-4.53,18.48-4.69.13.58,2,8.38,0,11.71h0A28.61,28.61,0,0,0,134,279.37a1.23,1.23,0,1,0,1.84,1.64c.06-.07,5.3-5.83,12.44-7.24C153.38,278.15,164.59,289.32,161.34,301.27Z"/><path class="cls-3" d="M172.26,302.09c-.45.09-1,.17-1.58.25-2.23.3-5.37.56-9,.76-4.54.25-9.86.4-15.11.4-6.09,0-12.1-.21-16.72-.69l-1.24-.14h-.16a.93.93,0,0,1-.77-1.06.91.91,0,0,1,1-.78h.12l1.11.13c8.46.91,21.69.84,31.43.32,4-.22,7.41-.51,9.66-.85l.92-.15a.93.93,0,0,1,.87.3.86.86,0,0,1,.21.44A.92.92,0,0,1,172.26,302.09Z"/><path class="cls-8" d="M169,173.64a32.41,32.41,0,0,1-7.8,5.82q0-.41-.09-.81c0-.26-.08-.52-.14-.77s-.1-.5-.17-.74l0-.1a4.6,4.6,0,0,0-.2-.66,13.14,13.14,0,0,0-.65-1.69c-.08-.18-.17-.36-.26-.54s-.18-.35-.28-.51-.16-.31-.25-.45a17.61,17.61,0,0,0-1.75-2.44c-.13-.17-.27-.33-.41-.48s-.28-.31-.43-.46l-.42-.44a21.43,21.43,0,0,0-1.63-1.46l-.37-.31a26.18,26.18,0,0,0-3.3-2.24l-.44-.25a23.46,23.46,0,0,1,1.61-3.38,2,2,0,0,1,.11-.2c1.44-2.4,3.69-5,6.85-5.44a1.23,1.23,0,0,0-.36-2.44,11.85,11.85,0,0,0-7.71,5.25c-1.72-2-5.24-5.7-9.4-7.23h0a23.44,23.44,0,0,1-5.95-19.61C145.34,134.71,173.67,144.91,169,173.64Z"/><path class="cls-8" d="M149.47,161.1a24.48,24.48,0,0,0-1.74,4h0c-2,2.45-5.61,6.17-8.27,8.9-.58.61-1.13,1.16-1.6,1.65-.2-7.74,2.61-17.82,3.67-21.32C145.17,156.09,148.29,159.66,149.47,161.1Z"/><path class="cls-3" d="M158.92,156.09c-3.16.47-5.41,3-6.85,5.44a2,2,0,0,0-.11.2,23.46,23.46,0,0,0-1.61,3.38c-.21.58-.32.94-.33,1a1.22,1.22,0,0,1-1.18.89,1.48,1.48,0,0,1-.35-.05,1.24,1.24,0,0,1-.84-1.53l.07-.24h0a24.48,24.48,0,0,1,1.74-4,20.83,20.83,0,0,1,1.38-2.2,11.85,11.85,0,0,1,7.71-5.25,1.23,1.23,0,0,1,.36,2.44Z"/><path class="cls-9" d="M122.94,115.84s0,0,0,.06c-.22,1.56-2.51,15.31-14.6,15.39-5.17.05-9-1.26-11.5-3.88a11.77,11.77,0,0,1-3-7.45v-.08a.89.89,0,0,0,0-.23c0-.24,0-.38,0-.39a1,1,0,0,0,0-.25c1.58.16,3.19.27,4.84.34a87.76,87.76,0,0,0,10.19-.18,56,56,0,0,0,13.42-3.42h0Z"/><path class="cls-10" d="M93.86,119.65a1.28,1.28,0,0,0-.3-.67l.3,0a1,1,0,0,1,0,.25S93.85,119.41,93.86,119.65Z"/><path class="cls-10" d="M123.21,115.88a1.29,1.29,0,0,0-.28.64c-.22,1.56-2.51,15.3-14.6,15.39-5.17,0-9-1.27-11.5-3.88a11.89,11.89,0,0,1-3-8.07,11.77,11.77,0,0,0,3,7.45c2.47,2.62,6.33,3.93,11.5,3.88,12.09-.08,14.38-13.83,14.6-15.39,0,0,0,0,0-.06Z"/><path class="cls-3" d="M125.38,116.23s0,.06,0,.09c-.94,6.49-5.56,17.36-17,17.44h-.24c-5.78,0-10.18-1.58-13.1-4.69a14.23,14.23,0,0,1-3.61-10,1.28,1.28,0,0,1,.08-.35,1.09,1.09,0,0,1,.43-.56,1.2,1.2,0,0,1,.81-.24A1.25,1.25,0,0,1,93.86,119a1,1,0,0,1,0,.25s0,.15,0,.39V120a11.77,11.77,0,0,0,3,7.45c2.47,2.62,6.33,3.93,11.5,3.88,12.09-.08,14.38-13.83,14.6-15.39,0,0,0,0,0-.06a1.38,1.38,0,0,1,.15-.4,1.13,1.13,0,0,1,.12-.18h0a1.2,1.2,0,0,1,1-.44v.62l0,.61h0Z"/><path class="cls-8" d="M202.41,102.79c-.3,4.22-.51,8.92-.74,14.18s-.49,10.87-.87,17.21c-.21,3.32-.44,6.83-.73,10.53-2.38,20.84-12.52,65.08-55.87,61.81-.17-.61-.35-1.27-.55-2a17.8,17.8,0,0,0,4.71.64c3.38,0,7.73-1,13.1-4.58a1.25,1.25,0,0,0,.52-.75,40.48,40.48,0,0,1,1.83-5,1.25,1.25,0,0,0,.08-.76c-.74-3.4-1.73-5.45-3-6.25a2.19,2.19,0,0,0-1.38-.36c-2.45.11-3.83,2.26-4.53,4.47.12-2.22-1.62-4.38-3-5.71.7-.12,1.54-.21,2.16-.28,2.36-.25,4.59-.48,5.71-1.69a6.66,6.66,0,0,0,1.13-1.89c10.32-5.35,15.46-12.19,15.3-20.33-.3-14.79-18.14-30-29-37.86,5.82-23.48,17.08-39.61,33.56-48.12A32.69,32.69,0,0,0,175.13,86s6.82-4.9,11.14-3.46c0,0-2.64,10.22-2.43,12.89,0,0,6.11-12,10-11.23,0,0-2.47,8.76-.82,12.06,0,0,5.15-9.9,7.62-8.55C200.66,87.67,198.82,97.84,202.41,102.79Z"/><path class="cls-3" d="M224.15,69.18a1.23,1.23,0,0,1-.75,1.24,32,32,0,0,0-10,6.14c-7.79,7.44-8.3,18.84-9.27,40.52-.23,5.25-.49,11.06-.89,17.52-.52,8.64-1.29,18.46-2.55,29.69-2.61,23.06-10.3,38.67-22.87,46.4A37.16,37.16,0,0,1,158.18,216a45.33,45.33,0,0,1-11.5-1.5,22.87,22.87,0,0,1-2.35-.73,1.23,1.23,0,1,1,.86-2.31l.51.17c2.94.93,17.74,5,30.85-3.09,11.87-7.31,19.17-22.3,21.68-44.56.79-7,1.38-13.37,1.84-19.3.29-3.7.52-7.21.73-10.53.38-6.34.64-12,.87-17.21s.44-10,.74-14.18c.82-11.52,2.31-19.44,6.84-25.33a27.43,27.43,0,0,1,9.54-7.63A68.77,68.77,0,0,0,191,72a58.16,58.16,0,0,0-10.15,4.08h0c-16.48,8.51-27.74,24.64-33.56,48.12-.07.27-.14.54-.2.82a1.24,1.24,0,0,1-1.5.9,1.23,1.23,0,0,1-.91-1.48c.15-.6.29-1.19.45-1.78,9.08-35.36,29.56-48.39,45.27-53.07a68.93,68.93,0,0,1,32.87-1.5A1.22,1.22,0,0,1,224.15,69.18Z"/><path class="cls-10" d="M161.34,301.27c-.05.2-.12.4-.18.6"/><path class="cls-10" d="M145.81,271.83h0s1,.69,2.44,1.93"/><path class="cls-5" d="M95.89,304.87a.4.4,0,0,1-.12.1,2.9,2.9,0,0,1-.36.2,2.81,2.81,0,0,1-.42.17.75.75,0,0,1-.18.07l-.19.06-.34.1c-.41.11-.89.22-1.45.32-.39.08-.81.15-1.28.22l-.68.1-1,.12-.2,0-1.06.11c-.85.08-1.77.16-2.75.23l-1.36.09-1,0-1.09.05a27,27,0,0,1,.29-4.24c4-.32,8.28-.76,12.76-1.37A28.15,28.15,0,0,0,95.89,304.87Z"/><path class="cls-2" d="M99.34,261.55a6,6,0,0,1-3.54,2.11c-.42-.15-.86-.29-1.29-.42s-.7-.22-1.05-.32c-.76-.22-1.52-.42-2.3-.6l-.8-.19-.8-.17-.32-.07-.66-.13-1.24-.23h-.07c9.8-15,7.74-40.61,6.86-48.15a34.44,34.44,0,0,0,8,3.8,1.1,1.1,0,0,0-.07.41c0,1.62,0,3.11,0,4.55a184,184,0,0,0,.71,20.09C103.74,253.89,101.44,259.17,99.34,261.55Z"/><path class="cls-10" d="M94.13,213.37c-.16-1.38-.27-2.16-.27-2.16"/><path class="cls-10" d="M87.27,261.52a25.39,25.39,0,0,1-1.61,2.24l.44-2.43"/><path class="cls-10" d="M146.68,257.63c-.07.44-.16.88-.24,1.33"/><path class="cls-10" d="M144.31,206.91c-.74,0-1.16-.11-1.16-.11"/><path class="cls-11" d="M105.85,184.89A15.79,15.79,0,0,1,96.64,188H81.51c-9.39,0-5.74-9.39-5.74-9.39s1.87-4,5.91-16.69c3.55-11.12,13.47-10.92,15.13-11,5-.11,17,0,20.17,0s2.26,2.26,2.26,2.26L117.16,159l-7.78,20.88A12,12,0,0,1,105.85,184.89Z"/><path class="cls-12" d="M114.72,162.29l3-8.35s.69-1.57-1.74-1.57c0,0-15-.13-20,0a12,12,0,0,0-11.39,8.44c-2.82,8-6.08,17-6.08,17s-2.61,7.65,4.69,7.65H97.94a12.2,12.2,0,0,0,10.78-7l4.87-13.73H99.33l-3,7.82h4.52l-.87,2.61H89.42l4.52-12.87Z"/><path class="cls-3" d="M120.51,133.19a5.73,5.73,0,1,0,5.72,5.73A5.73,5.73,0,0,0,120.51,133.19Zm0,9a3.26,3.26,0,1,1,3.25-3.26A3.26,3.26,0,0,1,120.51,142.18Z"/><path class="cls-4" d="M123.76,138.92a3.25,3.25,0,1,1-3.25-3.26A3.26,3.26,0,0,1,123.76,138.92Z"/><path class="cls-3" d="M88.52,132.72a5.73,5.73,0,1,0,5.73,5.73A5.74,5.74,0,0,0,88.52,132.72Zm0,9a3.26,3.26,0,1,1,3.26-3.25A3.26,3.26,0,0,1,88.52,141.7Z"/><path class="cls-4" d="M91.78,138.45a3.26,3.26,0,1,1-3.26-3.26A3.26,3.26,0,0,1,91.78,138.45Z"/><path class="cls-9" d="M218.79,69.83a27.43,27.43,0,0,0-9.54,7.63c-4.53,5.89-6,13.81-6.84,25.33-3.59-5-1.75-15.12-1.75-15.12-2.47-1.35-7.62,8.55-7.62,8.55-1.65-3.3.82-12.06.82-12.06-3.91-.75-10,11.23-10,11.23-.21-2.67,2.43-12.89,2.43-12.89C182,81.06,175.13,86,175.13,86a32.69,32.69,0,0,1,5.66-9.89h0A58.16,58.16,0,0,1,191,72,68.77,68.77,0,0,1,218.79,69.83Z"/><path class="cls-13" d="M200.07,144.71c-.46,5.93-1,12.34-1.84,19.3-2.52,22.26-9.81,37.25-21.68,44.56-13.12,8.08-27.92,4-30.85,3.09,0-.08,0-.17-.07-.26s-.54-1.78-1.32-4.49c0-.13-.07-.25-.11-.39C187.54,209.79,197.69,165.55,200.07,144.71Z"/><path class="cls-3" d="M163.74,193.47a7.73,7.73,0,0,1-3.63,4.06c.45-1.32,1-2.66,1.27-3.3-.77-3.36-1.6-4.13-1.8-4.28-1.94.1-2.64,4-2.72,5.08a1.23,1.23,0,0,1-.78,1.05,2.79,2.79,0,0,1-2.71-.06c-1.07-.8-1-2.42-.88-4.15s-2.3-4.05-3.5-5a1.24,1.24,0,0,1-.34-1.58c.75-1.35,2.72-1.56,5.22-1.82,1.46-.16,3.67-.39,4.16-.92a4.86,4.86,0,0,0,.73-1.34,11.86,11.86,0,0,0-.81-4.76l.74-.38a3.3,3.3,0,0,1,1.85.27,13.25,13.25,0,0,1,.63,3.08,14.59,14.59,0,0,1,.05,2.1,1.36,1.36,0,0,1-.07.35c0,.08-.09.24-.19.47a6.61,6.61,0,0,1-1.12,1.89c-1.12,1.21-3.35,1.44-5.71,1.69-.62.07-1.46.16-2.16.28,1.36,1.33,3.1,3.49,3,5.71.7-2.21,2.08-4.36,4.53-4.47a2.18,2.18,0,0,1,1.37.36C162.08,188.6,163,190.43,163.74,193.47Z"/><path class="cls-14" d="M160,193.47c-.26.63-.51,2.2-1,3.52-7.77,3.71-8.26-1-8.26-1,1.08-2.63-4.93-11.14-4.93-11.14.15-2,9.42-6.95,12.14-8.36a11.86,11.86,0,0,1,.81,4.76,4.86,4.86,0,0,1-.73,1.34c-.49.53-2.7.76-4.16.92-2.5.26-4.47.47-5.22,1.82a1.24,1.24,0,0,0,.34,1.58c1.2.91,3.63,3.31,3.5,5s-.19,3.35.88,4.15a2.79,2.79,0,0,0,2.71.06,1.23,1.23,0,0,0,.78-1.05c.08-1.06.78-5,2.72-5.08A10.42,10.42,0,0,0,160,193.47Z"/><path class="cls-5" d="M171.2,305.94a7.26,7.26,0,0,1-.84.21l-.21,0-.28.05-.43.07h-.07l-.43.06-.13,0-.32,0c-1,.13-2.28.24-3.69.34l-.54,0-.6,0-3.13.17,1.16-3.91c3.62-.2,6.76-.46,9-.76,0,.15,0,.29,0,.46l0,.25a9.12,9.12,0,0,0,.18,1.07A12.61,12.61,0,0,1,171.2,305.94Z"/><path class="cls-13" d="M169,173.64c4.7-28.73-23.63-38.93-33.47-41.58a33.23,33.23,0,0,1,3.39-10.55c5.9,3.75,35.23,23.36,34.9,41.2A16,16,0,0,1,169,173.64Z"/><path class="cls-3" d="M79.42,53.34l.22.16,0,0c0-.31,0-.72.08-1.22s.06-.82.1-1.22Zm0,0,.22.16,0,0c0-.31,0-.72.08-1.22s.06-.82.1-1.22Zm0,0,.22.16,0,0c0-.31,0-.72.08-1.22s.06-.82.1-1.22Zm67.75,9.38v-.15c-.25-2.64-.57-5.44-1-8.39a214.36,214.36,0,0,0-1.59-32.52,105.81,105.81,0,0,0-2.16-11.39,1.24,1.24,0,0,0-1.19-.94c-.53,0-2.23.28-5.19,3.2s-7.42,8.82-13.23,20l-3.51-1c-6-1.74-15.35-4.48-18-5.16-.74-1.41-3-5.56-5.43-9.65C90.2,7.27,88,6,86.56,6a2.16,2.16,0,0,0-2.08,1.73C81.1,18.4,78.7,33,77.35,51.2c-5.33-5.59-11.28-11-16.11-11-2,0-4.73,1-5.94,5.81a20.94,20.94,0,0,0,2.49,16.07c2.7,4.35,8.09,9.66,18.49,10.64,0,2.21-.28,7.4-3.19,9.83-4.27,3.58-14.79,4.19-22.47,4.64l-.9.06c-5.07.29-8,.55-9.46,1.39a1.11,1.11,0,0,0-.43.43,1.19,1.19,0,0,0-.15.35s0,.09,0,.14h0a1.25,1.25,0,0,0,.2.82,53.42,53.42,0,0,0,5.76,6.81,78.6,78.6,0,0,0,9.52,8.28,77.29,77.29,0,0,0,46.17,15h0a88.26,88.26,0,0,0,10.29-.61,54.86,54.86,0,0,0,11.12-3.09,50.17,50.17,0,0,0,8.09-4,33.68,33.68,0,0,0,13.39-14.36c0-.11.28-.67.62-1.71C146.13,92.67,148.86,81.47,147.17,62.72ZM142.51,95.8c-.33,1.06-.55,1.6-.56,1.62-.17.38-.36.76-.55,1.12s-.52,1-.8,1.42c-.14.23-.28.46-.43.68s-.33.5-.5.74-.27.39-.41.57l-.47.63s0,0,0,0l-.48.59c-.16.2-.34.4-.51.6l-.45.51a34.11,34.11,0,0,1-5.64,4.89l-.57.4-.58.38-.58.37-.58.36-.59.34c-.39.23-.78.46-1.17.67-1,.53-2,1-2.92,1.45l-.61.29-.62.26c-1.32.58-2.61,1.06-3.82,1.48l-.89.31-.27.08c-.38.12-.74.24-1.1.34l-.18.06c-.3.08-.58.16-.85.25l-.12,0c-.45.13-.89.24-1.3.34s-.85.21-1.22.3l-.59.13-.3.07-.86.17-.49.08-.16,0h0a89.06,89.06,0,0,1-10,.58h0a74.84,74.84,0,0,1-52-20.69l-1-.94c-.56-.55-1.08-1.08-1.55-1.58-1.79-1.87-3.09-3.43-3.9-4.46,1.81-.33,4.87-.51,7.85-.69l.3,0c8.43-.48,18.78-1.13,23.62-5.18,4.51-3.77,4.11-11.84,4-12.88v-.1a1.24,1.24,0,0,0-1.16-1.13c-.44,0-.88-.06-1.3-.11-9.23-1-14-5.62-16.36-9.45A18.5,18.5,0,0,1,57.7,46.58c.88-3.53,2.45-3.94,3.54-3.94,4.7,0,12.28,8.09,15.14,11.14l.6.63c.19.21.36.38.5.51a1.22,1.22,0,0,0,.87.38h0c1.15,0,1.24-1.13,1.28-1.62,0,0,0-.1,0-.16h0c0-.31,0-.72.08-1.22s.06-.82.1-1.22v0c.24-3.32.53-6.52.85-9.59a193.79,193.79,0,0,1,4.66-27.78v0h0c.43-1.64.86-3.21,1.33-4.7a.08.08,0,0,1,0,0c0-.11.07-.24.11-.36.82.46,2.22,2.15,3.87,4.56a149.44,149.44,0,0,1,8.16,13.78L99.38,28a1.29,1.29,0,0,0,.56.55h0a1.42,1.42,0,0,0,.33.11c.88.16,11.61,3.27,20,5.75l2.39.7.38.11a1.23,1.23,0,0,0,1.42-.58l0,0a108.78,108.78,0,0,1,10.14-16.68,37.79,37.79,0,0,1,3.07-3.53,16.65,16.65,0,0,1,2-1.69h0c.24-.17.46-.31.65-.42.14.61.28,1.23.41,1.85.07.36.15.71.22,1.07h0c.1.54.21,1.08.3,1.63l.24,1.33c.09.54.18,1.08.26,1.61s.2,1.25.28,1.86.14,1.06.22,1.59c.11.88.21,1.77.31,2.64.08.67.15,1.35.22,2s.12,1.26.17,1.89.11,1.26.16,1.87.07,1,.1,1.46.05.67.07,1l.06,1c.06.9.11,1.79.14,2.65,0,.37,0,.74,0,1.1a1.21,1.21,0,0,1,0,.19c0,.42,0,.84,0,1.26s0,.82,0,1.21,0,.63,0,.93,0,.33,0,.5,0,.6,0,.89,0,.74,0,1.1,0,.52,0,.77c.05,4.24,0,7.26-.06,8.21v.32a1,1,0,0,0,0,.24c.07.45.13.89.19,1.33q.42,3,.68,5.85c.09.84.17,1.66.23,2.47C146.2,81.42,143.68,92,142.51,95.8ZM79.42,53.34l.22.16,0,0c0-.31,0-.72.08-1.22s.06-.82.1-1.22Zm0,0,.22.16,0,0c0-.31,0-.72.08-1.22s.06-.82.1-1.22Zm0,0,.22.16,0,0h0c0-.31,0-.72.08-1.22s.06-.82.1-1.22Z"/><path class="cls-9" d="M86.72,33.55a27.31,27.31,0,0,0-6,7.92,192.27,192.27,0,0,1,4.67-27.78C86.12,20.81,87,30.69,86.72,33.55Z"/><path class="cls-8" d="M98.83,26.91l-1.61.51A30,30,0,0,0,88.62,32c0-3.91-.65-11-1.22-16.53a16.55,16.55,0,0,1,3.27-2.3A147.23,147.23,0,0,1,98.83,26.91Z"/><path class="cls-1" d="M127.92,62.79c-32.64.92-45.75-7.4-48.26-9.27h0c0-.31,0-.72.08-1.22s.07-.82.1-1.22v0l.77-4.26a26.11,26.11,0,0,1,17.2-17.62c1-.33,1.69-.54,2.13-.67h0a1.35,1.35,0,0,0,.34.11c.87.16,11.6,3.27,20,5.75A198.65,198.65,0,0,1,127.92,62.79Z"/><path class="cls-9" d="M143.7,53.88a2.9,2.9,0,0,1-2.28,0h0a4.4,4.4,0,0,1-1.5-1c-5.4-5.26-1.74-26.1,1.07-37.7C144.27,31.6,143.79,51.16,143.7,53.88Z"/><path class="cls-1" d="M77,54.41c-.61,3.08-.72,11.59-.73,15.79-9.22-1-14-5.62-16.36-9.45A18.5,18.5,0,0,1,57.7,46.58c.88-3.53,2.45-3.94,3.55-3.94,4.69,0,12.27,8.09,15.13,11.14Z"/><path class="cls-8" d="M128.35,65.25c-.5,0-1,0-1.47,0-3.95.09-7.62,0-11-.1-.6,0-1.2,0-1.79-.08h0c-1.19-.06-2.33-.14-3.45-.24-.85-.06-1.67-.14-2.47-.22l-1.29-.14-2.61-.32c-.84-.11-1.67-.24-2.47-.37l-.49-.08c-.44-.06-.87-.14-1.29-.22l-.3-.05L99,63.34c-.73-.14-1.44-.28-2.12-.43l-.91-.2c-.62-.14-1.22-.28-1.8-.43-.75-.19-1.47-.38-2.16-.58s-1.48-.43-2.16-.64l-.87-.29a47.25,47.25,0,0,1-7.78-3.34l-.57-.33c-.54-.31-1-.61-1.4-.87-.31,3.05-.48,9.44-.48,15.27v0c.08,1,.48,9.11-4,12.88-4.84,4-15.19,4.7-23.62,5.18a6.18,6.18,0,0,1,.23,1.88,5.94,5.94,0,0,1-1.73,3.94c8.51,2.66,41.65,11.65,64-2.13,6.43-4,12-6,16.6-6.07A120.89,120.89,0,0,0,128.35,65.25Zm-30,13.94c-.22,5.19-2.32,9.32-4.71,9.22S89.5,84,89.72,78.83s2.32-9.32,4.71-9.22S98.57,74,98.36,79.19Zm16.24.67c-.21,5.19-2.32,9.32-4.7,9.22s-4.15-4.39-3.93-9.58,2.31-9.32,4.7-9.23S114.81,74.66,114.6,79.86Z"/><path class="cls-3" d="M147.17,62.72a1.23,1.23,0,0,1-1.1,1.23l-1.26.14c-1.56.16-3.08.31-4.57.44l-2.93.24-1.44.11-1.67.1c-.67,0-1.33.08-2,.11l-1.88.1h-.07l-1.91.06-1.47,0a151.61,151.61,0,0,1-18.74-.64l-1.29-.14c-1.79-.2-3.48-.43-5.08-.69l-.48-.08-1.3-.22-.3-.05q-1.48-.27-2.85-.57l-.91-.2c-1.42-.32-2.73-.66-4-1-.76-.21-1.49-.43-2.17-.64l-.87-.29a47.25,47.25,0,0,1-7.78-3.34l-.56-.33c-.55-.31-1-.61-1.41-.87-.3,3.05-.48,9.44-.48,15.27v0a1.24,1.24,0,0,1-2.47,0c0-.37,0-.82,0-1.34,0-4.2.12-12.71.73-15.79a5.71,5.71,0,0,1,.24-.86,1.39,1.39,0,0,1,.37-.46,1.24,1.24,0,0,1,.52-.24,1.19,1.19,0,0,1,1.08.3s.08.08.23.19l.22.16,0,0h0c2.51,1.87,15.62,10.19,48.26,9.27,5.07-.15,10.62-.52,16.67-1.17.4,0,.81-.08,1.21-.13a1.25,1.25,0,0,1,1.37,1.08v.15Z"/><path class="cls-3" d="M145.46,55a5.29,5.29,0,0,1-1.56.75,4.57,4.57,0,0,1-1.33.2,4.93,4.93,0,0,1-1.65-.29,5.7,5.7,0,0,1-2.34-1.53,7,7,0,0,1-1-1.29c-4.09-6.44-1.81-22,.37-32.45.37-1.75.74-3.36,1.06-4.75.28-1.16.53-2.18.74-3h0a2.83,2.83,0,0,0,.09-.37c.29-1.09.48-1.78.53-2a.93.93,0,0,1,1.79.5c-.34,1.21-.73,2.68-1.13,4.34h0l-.5,2.1c-.45,2-.9,4.15-1.33,6.41-.06.28-.11.56-.16.86s-.11.56-.16.85-.09.57-.14.86c-.15.87-.3,1.75-.43,2.63,0,.29-.09.58-.13.88,0,.11,0,.23,0,.34-.07.47-.14.94-.2,1.42-.14,1.12-.27,2.25-.38,3.35,0,.24,0,.48-.07.72-.11,1.25-.2,2.48-.24,3.68,0,.28,0,.55,0,.82-.16,5.75.52,10.6,2.76,12.78a4.4,4.4,0,0,0,1.5,1h0a2.9,2.9,0,0,0,2.28,0,3.51,3.51,0,0,0,.7-.39A.93.93,0,0,1,145.46,55Z"/><path class="cls-3" d="M142,54.91a.93.93,0,0,1-.92.79H141l-.07,0C127.77,53.75,123.59,39,122.71,35.07c-.11-.5-.17-.82-.18-.92a.92.92,0,0,1,1.82-.31s.06.3.16.76c.71,3.06,3.94,14.53,13,18.26a15.44,15.44,0,0,0,3.71,1l.17,0h0A.93.93,0,0,1,142,54.91Z"/><path class="cls-3" d="M88.62,32h0a13.45,13.45,0,0,1-.13,2.2.92.92,0,0,1-.9.76h-.17a.93.93,0,0,1-.75-1.07c0-.09,0-.19,0-.3.3-2.86-.6-12.74-1.36-19.86h0c-.24-2.17-.45-4.08-.62-5.46A.93.93,0,0,1,86.58,8c0,.1,0,.39.1.84a.34.34,0,0,0,0,.1c.14,1.27.41,3.66.71,6.5C88,20.91,88.62,28.05,88.62,32Z"/><path class="cls-9" d="M124.09,113.46l.61-.28h0ZM112,117.28l-.49.08Zm-.49.08-.16,0Z"/><path class="cls-9" d="M142.51,95.8c-.33,1.06-.55,1.6-.56,1.62-.17.38-.36.76-.55,1.12s-.52,1-.8,1.42c-.14.23-.28.46-.43.68s-.33.5-.5.74-.27.39-.41.57l-.47.63s0,0,0,0l-.48.59-.51.6-.45.51a34.11,34.11,0,0,1-5.64,4.89l-.57.4-.58.38-.58.37-.58.36-.59.34c-.39.23-.78.46-1.17.67-1,.53-2,1-2.92,1.45l-.61.29-.62.26c-1.32.58-2.61,1.06-3.82,1.48l-.89.31-.27.08c-.38.12-.74.24-1.1.34l-.18.06c-.3.08-.58.16-.85.25l-.12,0c-.45.13-.89.24-1.3.34s-.85.21-1.22.3l-.59.13-.3.07-.86.17-.49.08-.16,0h0a89.06,89.06,0,0,1-10,.58h0a74.84,74.84,0,0,1-52-20.69l-1-.94a6.42,6.42,0,0,0,1.2-.93c8.51,2.66,41.65,11.65,64-2.13,6.43-4,12-6,16.6-6.07a12.3,12.3,0,0,1,12.34,8.58Z"/><path class="cls-3" d="M48.36,96.35l1,.94q-1.11-.35-1.74-.57l-.7-.24a.92.92,0,0,1-.56-1.18,1,1,0,0,1,.48-.53,1,1,0,0,1,.71,0s.77.28,2,.68A6.42,6.42,0,0,1,48.36,96.35Z"/><path class="cls-3" d="M142.58,100.09a.92.92,0,0,1-1-.8s0-.29-.14-.75c.19-.36.38-.74.55-1.12,0,0,.23-.56.56-1.62a15.42,15.42,0,0,1,.87,3.26A.93.93,0,0,1,142.58,100.09Z"/><path class="cls-3" d="M100.66,28.3s-.2,0-.71.21h0c-.44.13-1.12.34-2.13.67A26.11,26.11,0,0,0,80.61,46.8l-.77,4.26v0l-.42,2.26-.16.88a.93.93,0,0,1-.91.77l-.16,0a.93.93,0,0,1-.75-1.08l.15-.8,1.21-6.66,0-.07a25.32,25.32,0,0,1,1.87-4.89,27.31,27.31,0,0,1,6-7.92A23.74,23.74,0,0,1,88.62,32h0a30,30,0,0,1,8.6-4.54l1.61-.51c1-.33,1.41-.41,1.46-.42a.92.92,0,1,1,.37,1.81Z"/><path class="cls-3" d="M51.29,91.48a5.94,5.94,0,0,1-1.73,3.94,6.42,6.42,0,0,1-1.2.93,4.54,4.54,0,0,1-.77.37,5.61,5.61,0,0,1-2,.44,4.34,4.34,0,0,1-.51,0A5.93,5.93,0,0,1,39.42,91a5.79,5.79,0,0,1,.24-1.46h0c.05-.17.11-.33.17-.49a6,6,0,0,1,5.76-3.74,5.82,5.82,0,0,1,4.13,1.92,5.68,5.68,0,0,1,1.34,2.38A6.18,6.18,0,0,1,51.29,91.48Z"/><path class="cls-3" d="M93.18,12.85a2.8,2.8,0,0,0-2.51.28,16.55,16.55,0,0,0-3.27,2.3c-.44.39-.72.66-.72.66V6.67S95.19,14,93.18,12.85Z"/><polygon class="cls-3" points="141.8 10.57 140.77 14.1 139.99 16.75 138.73 21.05 137.91 20.41 134.68 17.88 133.97 17.32 137.6 14.19 139.8 12.29 141.8 10.57"/><path class="cls-3" d="M98.36,79.19c-.22,5.19-2.32,9.32-4.7,9.22S89.51,84,89.72,78.83s2.32-9.32,4.71-9.22S98.57,74,98.36,79.19Z"/><path class="cls-12" d="M96.82,74.94c-.07,1.61-.72,2.9-1.46,2.87s-1.29-1.37-1.22-3,.72-2.9,1.46-2.87S96.89,73.32,96.82,74.94Z"/><path class="cls-3" d="M114.6,79.86c-.21,5.19-2.32,9.32-4.7,9.22s-4.15-4.39-3.93-9.58,2.31-9.32,4.7-9.23S114.81,74.66,114.6,79.86Z"/><path class="cls-12" d="M112.75,75.3c-.07,1.62-.72,2.9-1.46,2.87s-1.29-1.36-1.23-3,.73-2.9,1.47-2.87S112.82,73.69,112.75,75.3Z"/><path class="cls-2" d="M144.59,61.62c-6.05.65-11.6,1-16.67,1.17a198.65,198.65,0,0,0-7.6-28.42l2.39.7c.88,3.89,5.06,18.68,18.21,20.61a4.93,4.93,0,0,0,1.65.29,4.57,4.57,0,0,0,1.33-.2Q144.32,58.82,144.59,61.62Z"/><path class="cls-13" d="M142.51,95.8a12.3,12.3,0,0,0-12.34-8.58,120.89,120.89,0,0,0-1.82-22l1.91-.06h.07l1.88-.1c.65,0,1.32-.06,2-.11l1.67-.1,1.44-.11,2.93-.24c1.49-.13,3-.28,4.57-.44C146.2,81.42,143.68,92,142.51,95.8Z"/><path class="cls-13" d="M137.54,52.86c-9.09-3.73-12.32-15.2-13-18.26,0,0,0,0,0,0a108.78,108.78,0,0,1,10.14-16.68l3.23,2.53C135.73,30.84,133.45,46.42,137.54,52.86Z"/><path class="cls-3" d="M50.27,140.86c-1.47-.8-3.25-1.88-5-3-3.48-2.34-6.82-5-7.23-6.77-.07-.29,0-.4.05-.46,3.52-5.1-.1-14.7-.54-15.81a7,7,0,0,0-4.11-5.1A9.1,9.1,0,0,0,29.9,109a13.46,13.46,0,0,0-2.63.28c-1.41-2.42-5.95-11.41-8.78-17.1l-.06-.13-.1-.11a5.44,5.44,0,0,0-4.14-2.32,5.37,5.37,0,0,0-4,2.22c-3,3.56,3.24,14.11,6.57,19.17a5.07,5.07,0,0,0-2.18,1.33,6.74,6.74,0,0,0-1.75,3.86A6.27,6.27,0,0,0,9,122.16c-2.29,1.29-3.57,2.89-3.82,4.74a5.35,5.35,0,0,0,.45,2.85.08.08,0,0,0,0,0c0,.13.12.26.18.38a8.47,8.47,0,0,0,1.63,2.2c6,7.32,11.24,9.25,13.33,9.75L24,158.33l1.13-.12a33.76,33.76,0,0,0,8-1.9c.81-.31,1.6-.63,2.35-1a38.61,38.61,0,0,0,10.36-7.1l.27-.26c1-.94,1.8-1.83,2.47-2.61s1.2-1.45,1.55-1.93.53-.73.58-.81l.72-1.11ZM45,145.52l-.73.72-.39.36-.14.13-.69.62a.18.18,0,0,1-.07.05c-.17.17-.35.32-.53.47a37,37,0,0,1-3.26,2.47c-.22.16-.45.3-.68.45,0,0,0,0,0,0l-.66.42-.74.44-.73.41-.76.4c-.5.27-1,.52-1.56.76l-.92.4-.88.34c-.7.27-1.43.51-2.17.73-.29.09-.6.18-.91.25s-.62.16-.93.24l-.37.07-.82.17c-.36.07-.73.13-1.1.18l-3.09-15.72-.93-.07c-.05,0-4.22-.47-9.74-5.9h0a38.8,38.8,0,0,1-2.87-3.17l-.14-.14a6,6,0,0,1-1.34-1.93,2.8,2.8,0,0,1-.21-1.44c.15-1.07,1-2.06,2.65-3,.17-.1.35-.19.54-.28l.78-.38-.1-.86a3.65,3.65,0,0,1,0-.63A3.71,3.71,0,0,1,14,118.43l.3-.08,1-.23,0-1a5.15,5.15,0,0,1,.09-.84,4.25,4.25,0,0,1,1-2.21,3.21,3.21,0,0,1,2.38-.85h0l2.54.06-1.38-2-.25-.38c-4.89-7.18-9-15.8-7.57-17.45l.09-.13a3.1,3.1,0,0,1,2-1.22,3.1,3.1,0,0,1,2.16,1.32c5.47,11,7.77,15.37,8.84,17.12.68,1.11.86,1.19,1.06,1.28l.43.18.43-.13s.11,0,.3-.08h0a11,11,0,0,1,2.48-.3c2.94,0,4.67,1.29,5.28,3.94l.06.19c1,2.58,3.24,10.07.83,13.57a2.94,2.94,0,0,0-.42,2.43,2.23,2.23,0,0,0,.09.32l0,.08a2.08,2.08,0,0,0,.12.32c.06.12.11.24.18.37s.14.25.22.37a3.11,3.11,0,0,0,.25.38,9.13,9.13,0,0,0,.58.77c.32.39.68.77,1.06,1.15l.4.39.42.38c.28.26.57.51.88.76a47.65,47.65,0,0,0,4.27,3.14l.93.6c.61.39,1.18.74,1.7,1l.47.28.6.35A36.06,36.06,0,0,1,45,145.52Z"/><path class="cls-4" d="M25.19,110.55c-.66.71-1.45,1.49-2.2,2.15a8.57,8.57,0,0,0-3.33-1.79c-4.89-7.18-9-15.8-7.57-17.45l.09-.13a3.1,3.1,0,0,1,2-1.22,3.1,3.1,0,0,1,2.16,1.32C21.82,104.46,24.12,108.8,25.19,110.55Z"/><path class="cls-4" d="M21,114.22l-.14.06c-1.48.5-1.68,2.17-1.48,4.19a15.71,15.71,0,0,0-4-2.19,4.25,4.25,0,0,1,1-2.21,3.21,3.21,0,0,1,2.38-.85h0A7,7,0,0,1,21,114.22Z"/><path class="cls-4" d="M21,126.32a2.84,2.84,0,0,1-2.28,1.57c-1.51-2.58-5.53-4.89-7.2-5.77A3.71,3.71,0,0,1,14,118.43c1,.34,4.42,1.62,6,4.38a.91.91,0,0,0,.11.16h0a7.36,7.36,0,0,1,.13,1.42A2,2,0,0,0,21,126.32Z"/><path class="cls-4" d="M16.76,130.22c-.62,1.22-1.24,1.49-1.66,1.6-1.39.33-3.83-.72-7.24-3.15a2.8,2.8,0,0,1-.21-1.44c.15-1.07,1-2.06,2.65-3,2.41,1.26,5.89,3.56,6.47,5.27A.8.8,0,0,1,16.76,130.22Z"/><path class="cls-4" d="M37.12,134.23a9.13,9.13,0,0,1-.58-.77C36.71,133.71,36.91,134,37.12,134.23Z"/><path class="cls-4" d="M43.77,146.73l.14-.13-.14.13-.69.62a.18.18,0,0,1-.07.05l-.53.47a37,37,0,0,1-3.26,2.47c-.22.16-.45.3-.68.45,0,0,0,0,0,0l-.66.42-.74.44-.73.41-.76.4c-.5.27-1,.52-1.56.76l-.92.4-.88.34c-.7.27-1.43.51-2.17.73-.29.09-.6.17-.91.25s-.62.16-.93.24l-.37.07-.82.17c-.36.07-.73.13-1.1.18l-3.09-15.72-.93-.07c-.05,0-4.22-.47-9.74-5.9a7.38,7.38,0,0,0,2.34.43,4.54,4.54,0,0,0,1.13-.14A5,5,0,0,0,19,131.33a3,3,0,0,0,.32-1,5.19,5.19,0,0,0,4-3,4.65,4.65,0,0,0,.66.05,4.91,4.91,0,0,0,2.84-.87c1-.71,2.2-2.12,2.38-4.91a12,12,0,0,0,1.5-.14,1.24,1.24,0,1,0-.42-2.44A11.29,11.29,0,0,1,28,119L26.68,119l0,1.37c.09,2-.38,3.41-1.33,4.06a2.7,2.7,0,0,1-2.46.24s-.06,0-.08,0a.65.65,0,0,1-.19-.1,14.39,14.39,0,0,0-.34-2.94l-.08-.47c-.23-1.25-.69-3.79-.45-4.54a6.52,6.52,0,0,0,1.3-.74c.13-.1.27-.19.4-.3l.07,0a34.76,34.76,0,0,0,3.85-3.65h0a11,11,0,0,1,2.48-.3s6.83,14.48,1.81,21.24C28.39,137.2,37.07,143.05,43.77,146.73Z"/><path class="cls-3" d="M30.68,121.37a12,12,0,0,1-1.5.14c-.18,2.79-1.36,4.2-2.38,4.91a4.91,4.91,0,0,1-2.84.87,4.65,4.65,0,0,1-.66-.05A4.53,4.53,0,0,1,22,126.9a3.67,3.67,0,0,1-1-.58,2,2,0,0,1-.8-1.92,7.36,7.36,0,0,0-.13-1.42h0l-.16-1-.09-.47c-.19-1-.38-2.08-.48-3-.2-2,0-3.69,1.48-4.19l.14-.06a10,10,0,0,0,2-1.52c.75-.66,1.54-1.44,2.2-2.15.23-.23.44-.46.63-.67a1.25,1.25,0,0,1,1.75-.1,1.22,1.22,0,0,1,.09,1.74l-.24.27h0a34.76,34.76,0,0,1-3.85,3.65l-.07,0a7.49,7.49,0,0,1-1.7,1c-.24.75.22,3.29.45,4.54l.08.47a14.39,14.39,0,0,1,.34,2.94.65.65,0,0,0,.19.1s0,0,.08,0a2.7,2.7,0,0,0,2.46-.24c.95-.65,1.42-2.06,1.33-4.06l0-1.37L28,119a11.29,11.29,0,0,0,2.22-.11,1.24,1.24,0,1,1,.42,2.44Z"/><path class="cls-3" d="M19.28,130.29a3,3,0,0,1-.32,1,5,5,0,0,1-3.28,2.88,4.54,4.54,0,0,1-1.13.14,7.38,7.38,0,0,1-2.34-.43h0a24.43,24.43,0,0,1-6.08-3.44,1.17,1.17,0,0,1-.29-.3,1.46,1.46,0,0,1-.18-.38.08.08,0,0,1,0,0,1.23,1.23,0,0,1,.2-1,1.22,1.22,0,0,1,1.72-.27l.29.2c3.41,2.43,5.85,3.48,7.24,3.15.42-.11,1-.38,1.66-1.6a.8.8,0,0,0,0-.68c-.58-1.71-4.06-4-6.47-5.27L9.75,124a1.24,1.24,0,0,1,1.08-2.23l.68.35c1.67.88,5.69,3.19,7.2,5.77a4.81,4.81,0,0,1,.4.87A3.37,3.37,0,0,1,19.28,130.29Z"/><path class="cls-3" d="M23.66,126a5.76,5.76,0,0,1-.36,1.29,5.19,5.19,0,0,1-4,3,6.07,6.07,0,0,1-1.14.11h-.25a1.24,1.24,0,0,1,.12-2.47,4.35,4.35,0,0,0,.7,0A2.84,2.84,0,0,0,21,126.32a2.67,2.67,0,0,0,.22-.74,1.24,1.24,0,0,1,1.41-1l.23,0s0,0,.08,0A1.25,1.25,0,0,1,23.66,126Z"/><path class="cls-3" d="M23.56,115.45l-.07,0-.07,0a1.33,1.33,0,0,1-.6.15,1.22,1.22,0,0,1-1.08-.64,2.59,2.59,0,0,0-.79-.83,7,7,0,0,0-2.2-1h0l-.09,0a1.25,1.25,0,0,1-.95-1.47,1.23,1.23,0,0,1,1.46-1l.51.13A8.57,8.57,0,0,1,23,112.7a4.91,4.91,0,0,1,.91,1.16A1.25,1.25,0,0,1,23.56,115.45Z"/><path class="cls-3" d="M21.64,123.28a1.21,1.21,0,0,1-.61.16,1.27,1.27,0,0,1-1-.46h0a.91.91,0,0,1-.11-.16c-1.54-2.76-4.94-4-6-4.38l-.3-.09a1.24,1.24,0,0,1,.63-2.39c.06,0,.43.12,1,.33a15.71,15.71,0,0,1,4,2.19,10.44,10.44,0,0,1,2.78,3.13A1.24,1.24,0,0,1,21.64,123.28Z"/><path class="cls-3" d="M80.54,119.77a4.61,4.61,0,0,0-1.17.56c-2.57,1.54-9.41,7.28-20.77,28l-.16.29-.28.5-.89-.18c-.24-.05-5.48-1.11-8.69-3.57a9.73,9.73,0,0,1-.89-.78,1.23,1.23,0,0,1,1.74-1.74,5.74,5.74,0,0,0,.7.59,20.52,20.52,0,0,0,6.75,2.88c13.31-24,20.63-28.15,22.76-28.85a2.72,2.72,0,0,1,.58-.14,1.15,1.15,0,0,1,.32,0,1.26,1.26,0,0,1,.93.63,1.13,1.13,0,0,1,.14.45A1.21,1.21,0,0,1,80.54,119.77Z"/><path class="cls-8" d="M73.19,139.6c-1.92,7.06-3.39,13.83-4.55,20.14-.13.77-.27,1.54-.4,2.29,0,.27-.09.54-.14.8a1.18,1.18,0,0,0-.29.3c-.07.11-4.61,6.46-12,6.5h-.07c-6.53,0-13.37-4.81-20.3-14.3a38.61,38.61,0,0,0,10.36-7.1c4.72,1.65,11.6,4.77,13.27,9.42C60.85,162.47,67.78,148.79,73.19,139.6Z"/><path class="cls-3" d="M69.85,164.53a18.72,18.72,0,0,1-2.47,2.74A17.18,17.18,0,0,1,55.9,172.1h-.12c-7.48,0-15.1-5.31-22.65-15.79-.1-.14-.19-.28-.29-.41a1.23,1.23,0,1,1,2-1.43c.21.29.41.58.63.86,6.93,9.49,13.77,14.3,20.3,14.3h.07c7.35,0,11.89-6.39,12-6.5a1.18,1.18,0,0,1,.29-.3,1.23,1.23,0,0,1,1.43,0A1.25,1.25,0,0,1,69.85,164.53Z"/><path class="cls-13" d="M79.37,120.33c-2.45,6.56-4.49,13-6.18,19.27-5.41,9.19-12.34,22.87-14.08,18.05-1.67-4.65-8.55-7.77-13.27-9.42,1.1-1,2-2,2.74-2.87,3.21,2.46,8.45,3.52,8.69,3.57l.89.18.28-.5.16-.29C70,127.61,76.8,121.87,79.37,120.33Z"/><path class="cls-3" d="M60.19,152.51A1.25,1.25,0,0,1,59,151.45a7.81,7.81,0,0,0-2.25-2.79,1.23,1.23,0,1,1,1.6-1.88c.67.57,2.85,2.55,3.1,4.32a1.24,1.24,0,0,1-1,1.4Z"/><path class="cls-14" d="M47.85,142.33A36.06,36.06,0,0,1,45,145.52l-.73.72-.39.36-.14.13c-6.7-3.68-15.38-9.53-12.06-14,5-6.76-1.81-21.24-1.81-21.24,2.94,0,4.67,1.29,5.28,3.94l.06.19c1,2.58,3.24,10.07.83,13.57a2.94,2.94,0,0,0-.42,2.43,2.23,2.23,0,0,0,.09.32l0,.08c0,.1.08.21.12.32s.11.24.18.37a2.77,2.77,0,0,0,.22.37,2.26,2.26,0,0,0,.25.38,9.13,9.13,0,0,0,.58.77c.32.39.68.77,1.06,1.15l.4.39.42.38c.28.26.57.51.88.76a47.65,47.65,0,0,0,4.27,3.14l.93.6c.61.39,1.18.74,1.7,1l.47.28Z"/><path class="cls-15" d="M91.78,105.84S106,107,117.9,98.16c0,0,2.61,10.45-9.58,13.47C108.32,111.63,100.17,114.39,91.78,105.84Z"/><path class="cls-3" d="M105,113c-3.45,0-8.65-1.13-13.92-6.49a.9.9,0,0,1-.18-1,.93.93,0,0,1,.91-.54s.57,0,1.56,0c4.12,0,14.7-.74,23.94-7.54a.92.92,0,0,1,.86-.13,1,1,0,0,1,.59.65,12.46,12.46,0,0,1-1.37,8.7c-1.73,2.87-4.7,4.85-8.85,5.88A12.47,12.47,0,0,1,105,113ZM94.18,106.8A16.71,16.71,0,0,0,105,111.13a10.17,10.17,0,0,0,3-.38l.07,0c3.67-.91,6.28-2.6,7.74-5a10.39,10.39,0,0,0,1.35-5.89A43.81,43.81,0,0,1,94.18,106.8Z"/></svg>